<svg xmlns="http://www.w3.org/2000/svg" width="780" height="432" fill="none"><g clip-path="url(#a)"><path fill="#fff" fill-rule="evenodd" d="M373.887 454.128c-92.787-5.738-174.751-53.253-212.451-134.072-.513-.928-.756-1.728-1.3-2.632l-.236-.672v-.129l-.244-.399-.3-.784c-26.857-60.896-23.744-129.105 2.837-191.447v-.249l1.593-3.416.243-.537c.49-1.04 1.024-2.104 1.514-3.273l.299-.655 1.537-3.144v-.401c.789-1.184 1.276-2.224 1.813-3.4l.236-.401c2.326-4.722 4.657-9.33 7.25-13.907l.49-.674c.299-.767.812-1.575 1.356-2.343.213-.537.489-1.056.7-1.577.544-.648.813-1.336 1.356-1.975.213-.64.733-1.186 1.024-1.826.489-.648.757-1.327 1.3-1.975.213-.521.757-1.17 1.024-1.697.489-.649.756-1.32 1.269-1.96.244-.656.78-1.184 1.27-1.832.323-.69.812-1.21 1.023-1.857.544-.641.813-1.306 1.356-1.944l1.27-1.73c.244-.64.787-1.304 1.277-1.945.267-.671.812-1.2 1.023-1.728q.872-.991 1.593-2.096c.49-.52.733-1.04 1.056-1.569.49-.655 1.024-1.303 1.514-2.113.543-.519.787-1.016 1.276-1.535.537-.808 1.057-1.456 1.593-2.25.489-.382.726-.903 1.024-1.302 1.023-1.177 1.756-2.37 2.806-3.546l55.061 117.582c-3.593 17.82-5.406 36.079-5.406 54.699 0 66 23.231 129.112 66.148 178.733l.536.519c.789.921 1.813 1.818 2.546 2.625l.3.249.724 1.209 1.593 1.568c.733.656 1.276 1.433 1.756 2.09l.324.153.7.767c.546.648 1.349 1.32 1.846 1.858l.236.368.78.791.811.785 1.513 1.441 1.843 1.857 1.026 1.057 1.268 1.169.789.784.78.641 1.813 1.857.487.249.813.801 1.276 1.183c.567.521 1.057.927 1.813 1.456v.119c.811.641 1.537 1.32 2.324 2.097l1.836 1.439 1.757 1.456.78.784c.546.521 1.026.92 1.57 1.289l.267.153 1.026.784.487.399c.543.399 1.026.768 1.569 1.289l.804.688c1.023.768 2.056 1.416 2.789 2.223h.3c4.42 3.353 9.07 6.633 13.729 9.779zM1.675 343.262c37-28.088 87.938-43.292 143.487-41.98 2.08 5.905 4.373 11.667 6.95 17.572l.543 1.209.237.767c.543.921.81 1.858 1.3 2.745 41.372 88.581 131.311 134.753 224.886 138.954-53.275 34.264-129.801 44.77-207.014 22.581-82.987-23.868-145.778-79.267-170.39-141.848m381.534 126.101c-16.061 28.599-39.292 51.709-69.31 65.857-58.891 27.831-128.151 13.26-182.18-31.36l29.204-13.66c2.86.928 5.973 1.864 8.787 2.632 40.079 11.547 82.422 15.245 123.558 9.058 31.53-4.569 63.037-15.073 89.941-32.527m23.019-15.235c92.752-5.738 174.694-53.253 212.417-134.072.513-.928.78-1.728 1.27-2.632l.323-.672v-.129l.213-.399.267-.784c26.881-60.896 23.768-129.105-2.86-191.447v-.249c-.489-1.199-1.026-2.256-1.513-3.416l-.267-.537c-.546-1.04-1.026-2.104-1.333-3.273l-.513-.655-1.567-3.144v-.401c-.489-1.184-1.269-2.224-1.789-3.4v-.401l-7.519-13.907-.234-.674q-.758-1.182-1.546-2.343c-.214-.537-.537-1.056-.757-1.577-.49-.648-.803-1.336-1.293-1.975-.244-.64-.787-1.186-1.024-1.826-.236-.642-.812-1.327-1.3-1.975-.269-.521-.756-1.17-1.023-1.697-.546-.649-.782-1.32-1.326-1.96-.244-.656-.733-1.184-1.024-1.832-.52-.69-1.056-1.21-1.276-1.857-.49-.641-.804-1.306-1.3-1.944l-1.293-1.73c-.267-.64-.757-1.304-1.3-1.945-.267-.671-.757-1.2-1.056-1.728-.488-.64-1.024-1.289-1.537-2.096-.213-.52-.757-1.04-1.024-1.569a25 25 0 0 1-1.569-2.113c-.487-.519-.724-1.016-1.267-1.535-.513-.808-1.057-1.456-1.539-2.25-.544-.382-.757-.903-1.024-1.303-1.023-1.176-1.843-2.368-2.869-3.545l-55.059 117.582c3.647 17.82 5.727 36.079 5.727 54.699 0 66-23.545 129.112-66.464 178.733l-.487.519c-.757.921-1.79 1.817-2.6 2.625l-.27.249-.756 1.209-1.513 1.568c-.537.656-1.347 1.433-1.837 2.09l-.267.153-.757.767c-.543.648-1.299 1.32-1.843 1.858l-.213.368-.813.791-.724.785-1.599 1.441-1.813 1.857-1.057 1.057-1.244 1.169-.812.784-.734.641-1.81 1.857-.546.249-.757.801-1.323 1.183c-.487.521-1.056.927-1.757 1.456v.119c-.813.641-1.6 1.32-2.38 2.097l-3.602 2.895-.78.784c-.487.521-1.024.92-1.513 1.289l-.323.153-1.024.784-.49.399c-.487.399-1.023.768-1.51 1.289l-.813.688c-1.024.768-2.057 1.416-2.86 2.223h-.22c-4.406 3.353-9.112 6.635-13.705 9.781m372.125-110.866c-36.913-28.088-87.861-43.292-143.403-41.98-2.087 5.905-4.436 11.667-7.006 17.572l-.543 1.209-.237.767c-.487.921-.756 1.858-1.3 2.745-41.379 88.581-131.288 134.753-224.586 138.954 53.005 34.264 129.508 44.77 206.792 22.581 82.911-23.87 145.726-79.265 170.283-141.848M396.889 469.363c16.012 28.599 39.246 51.709 69.253 65.857 58.955 27.831 128.215 13.26 182.244-31.36l-29.235-13.66a172 172 0 0 1-8.788 2.632c-40.047 11.547-82.446 15.245-123.526 9.058-31.507-4.569-62.815-15.073-89.948-32.527M390.166 0l6.732 4.2c.244.12.787.402 1.024.658 44.355 28.25 79.209 69.218 100.034 117.581 11.089 25.974 14.438 36.352 10.599 65.335-3.9 30.839-17.572 54.719-36.454 71.522 1.3-6.024 1.834-12.201 1.834-18.508 0-47.109-37.47-85.301-83.769-85.301-46.509 0-83.999 38.192-83.999 85.301 0 6.307.49 12.484 1.846 18.508-18.874-16.803-32.61-40.683-36.456-71.522-3.9-28.983-.244-39.361 10.599-65.335 20.924-48.7 56.078-89.623 100.004-117.581.267-.266.757-.538 1.056-.658a173 173 0 0 1 6.95-4.2m0 163.641c41.862 0 75.986 34.504 75.986 77.147 0 9.443-1.837 18.508-4.919 26.911-20.632 14.308-46.03 21.372-71.067 21.372-25.311 0-50.623-7.074-71.334-21.372-3.08-8.403-4.626-17.461-4.626-26.911-.007-42.65 33.824-77.147 75.96-77.147m0 133.568c-58.685 0-117.096-36.218-126.639-108.395l-2.836 38.578c0 66.401 24.311 127.015 64.604 173.347l.52.521c.513.904 1.567 1.824 2.324 2.625v.256l1.056 1.04.78.8.489.655.268.12c.543.648 1.025 1.32 1.789 1.977v.12l.543.399.27.399c.754.655 1.3 1.305 1.843 1.953h.213v.282h.267v.12l.544.535.489.521v.12l.237.129v.153l.297.12 1.026 1.04v.136h.244v.272l.49.369v.152l.566.249v.129l.214.153v.251h.267v.266l1.026.784v.129l.787.671v.12h.236v.249h.3v.282h.244v.136l.243.129v.153l.237.129v.12l.813.647.213.273.81.784h.237v.282h.3v.239h.213v.282h.267v.249h.236l.544.688.489.249.78.648v.281c.544.4 1.3.921 1.844 1.306v.272q1.096.981 2.302 1.824v.273h.234v.119l1.303.921v.249h.267v.119l.267.169 1.026.888.236.272.787.648h.267v.129c.546.4 1.026.792 1.57 1.193v.12h.243v.265h.237v.256h.246v.136h.297v.282h.246v.12h.237v.129c.543.399 1.024.8 1.567 1.169v.153h.267v.249h.237v.136h.246v.152c1.023.768 1.81 1.416 2.867 2.09v.136a296 296 0 0 0 18.598 12.852v-.016c1.026.655 2.056 1.319 3.113 1.84v-.016.152h.236v.137l1.026.641h.244v.129h.3v.152h.236l.787.655v.12l.267.129v.531l.213.152v.531h.27v-.531l.267-.152v-.531l.267-.129v-.12l.78-.655h.246v-.152h.236v-.129h.244l1.024-.641v-.137h.299v-.152c1.057-.512 2.08-1.169 3.113-1.817v-.017a274 274 0 0 0 18.552-12.835v-.137c1.023-.671 2.11-1.319 2.867-2.089v-.153h.269v-.136h.267v-.249h.27v-.152c.756-.369 1.023-.768 1.513-1.17l.297-.129v-.119h.237v-.282h.246v-.136h.236v-.256h.298v-.136l.236-.13v-.119c.49-.399 1.026-.801 1.513-1.193v-.136h.324l.726-.648.3-.272.967-.888.323-.169v-.12h.213v-.249l1.3-.92v-.12h.214v-.272c.812-.535 1.592-1.183 2.379-1.824v-.273c.757-.385 1.3-.904 1.79-1.305v-.282l.787-.648.536-.249.734-.688v-.248h.299v-.282h.244v-.249h.269v-.12l.211-.152.813-.785.213-.272.811-.648v-.12l.236-.129v-.152h.3v-.266h.244v-.281h.246v-.249h.236v-.12l.78-.672v-.129l1.024-.784v-.265h.267v-.256h.3v-.282h.236l.246-.249v-.152l.534-.369v-.272h.246v-.136l1.024-1.041.267-.119v-.153l.213-.129v-.12l.543-.521.49-.535v-.12h.323v-.282h.237c.487-.648 1.276-1.289 1.813-1.953l.267-.399.487-.399v-.12a11 11 0 0 0 1.789-1.977l.27-.12.543-.655.757-.8 1.023-1.04v-.256c1.024-.801 1.813-1.712 2.6-2.625l.49-.521c40.103-46.34 64.384-106.956 64.384-173.347l-2.869-38.578c-9.377 72.17-67.795 108.411-126.199 108.395z" clip-rule="evenodd" opacity=".1"/></g><defs><clipPath id="a"><path fill="#fff" d="M0 432V0h780v432z"/></clipPath></defs></svg>