<svg width="24" height="16" viewBox="0 0 24 16" fill="none" xmlns="http://www.w3.org/2000/svg">
<g clip-path="url(#clip0_2888_7837)">
<path d="M0 0H24V16H0V0Z" fill="white"/>
<path d="M10.4 0H13.6V16H10.4V0ZM0 6.4H24V9.6H0V6.4Z" fill="#FF0000"/>
<path d="M5.7627 11.1631C5.68134 11.5685 5.62967 11.9785 5.60938 12.3896C6.02083 12.3694 6.43115 12.3187 6.83691 12.2373C6.78787 12.6107 6.78788 12.9889 6.83691 13.3623C6.43114 13.2809 6.02084 13.2292 5.60938 13.209C5.62963 13.6204 5.68129 14.0307 5.7627 14.4365C5.38931 14.3875 5.01108 14.3875 4.6377 14.4365C4.7191 14.0308 4.76978 13.6204 4.79004 13.209C4.3789 13.2293 3.96893 13.281 3.56348 13.3623C3.6125 12.9889 3.61252 12.6107 3.56348 12.2373C3.96892 12.3186 4.37891 12.3694 4.79004 12.3896C4.76974 11.9785 4.71905 11.5685 4.6377 11.1631C5.01109 11.2121 5.3893 11.2121 5.7627 11.1631Z" fill="#FF0000"/>
<path d="M19.3633 11.1631C19.2819 11.5685 19.2303 11.9785 19.21 12.3896C19.6214 12.3694 20.0317 12.3187 20.4375 12.2373C20.3885 12.6107 20.3885 12.9889 20.4375 13.3623C20.0317 13.2809 19.6214 13.2292 19.21 13.209C19.2302 13.6204 19.2819 14.0307 19.3633 14.4365C18.9899 14.3875 18.6117 14.3875 18.2383 14.4365C18.3197 14.0308 18.3704 13.6204 18.3906 13.209C17.9795 13.2293 17.5695 13.281 17.1641 13.3623C17.2131 12.9889 17.2131 12.6107 17.1641 12.2373C17.5695 12.3186 17.9795 12.3694 18.3906 12.3896C18.3703 11.9785 18.3196 11.5685 18.2383 11.1631C18.6117 11.2121 18.9899 11.2121 19.3633 11.1631Z" fill="#FF0000"/>
<path d="M5.7627 1.56348C5.68134 1.96893 5.62967 2.3789 5.60938 2.79004C6.02083 2.76978 6.43115 2.71911 6.83691 2.6377C6.78787 3.01109 6.78788 3.3893 6.83691 3.7627C6.43114 3.68128 6.02084 3.62964 5.60938 3.60938C5.62963 4.02084 5.68129 4.43114 5.7627 4.83691C5.38931 4.78789 5.01108 4.78788 4.6377 4.83691C4.7191 4.43115 4.76978 4.02083 4.79004 3.60938C4.3789 3.62966 3.96893 3.68135 3.56348 3.7627C3.6125 3.38931 3.61252 3.01108 3.56348 2.6377C3.96892 2.71904 4.37891 2.76975 4.79004 2.79004C4.76974 2.37891 4.71905 1.96892 4.6377 1.56348C5.01109 1.61252 5.3893 1.61251 5.7627 1.56348Z" fill="#FF0000"/>
<path d="M19.3633 1.56348C19.2819 1.96893 19.2303 2.3789 19.21 2.79004C19.6214 2.76978 20.0317 2.71911 20.4375 2.6377C20.3885 3.01109 20.3885 3.3893 20.4375 3.7627C20.0317 3.68128 19.6214 3.62964 19.21 3.60938C19.2302 4.02084 19.2819 4.43114 19.3633 4.83691C18.9899 4.78789 18.6117 4.78788 18.2383 4.83691C18.3197 4.43115 18.3704 4.02083 18.3906 3.60938C17.9795 3.62966 17.5695 3.68135 17.1641 3.7627C17.2131 3.38931 17.2131 3.01108 17.1641 2.6377C17.5695 2.71904 17.9795 2.76975 18.3906 2.79004C18.3703 2.37891 18.3196 1.96892 18.2383 1.56348C18.6117 1.61252 18.9899 1.61251 19.3633 1.56348Z" fill="#FF0000"/>
</g>
<defs>
<clipPath id="clip0_2888_7837">
<rect width="24" height="16" fill="white"/>
</clipPath>
</defs>
</svg>
