<svg width="24" height="16" viewBox="0 0 24 16" fill="none" xmlns="http://www.w3.org/2000/svg">
<path d="M0 0H24V16.0002H0V0Z" fill="white"/>
<path d="M13.5 0H10.5V6.49998H0V9.49998H10.5V16H13.5V9.49998H24V6.49998H13.5V0Z" fill="#D80027"/>
<path d="M18.4564 10.7822L23.9978 13.8608V10.7822H18.4564ZM14.6064 10.7822L23.9978 15.9996V14.5243L17.2621 10.7822H14.6064ZM21.4962 15.9996L14.6064 12.1716V15.9996H21.4962Z" fill="#0052B4"/>
<path d="M14.6064 10.7822L23.9978 15.9996V14.5243L17.2621 10.7822H14.6064Z" fill="white"/>
<path d="M14.6064 10.7822L23.9978 15.9996V14.5243L17.2621 10.7822H14.6064Z" fill="#D80027"/>
<path d="M4.23571 10.7822L0.000976562 13.1349V10.7822H4.23571ZM9.39229 11.4457V15.9997H1.19587L9.39229 11.4457Z" fill="#0052B4"/>
<path d="M6.73561 10.7822L0 14.5243V15.9996L9.39131 10.7822H6.73561Z" fill="#D80027"/>
<path d="M5.54133 5.21738L0 2.13881V5.21738H5.54133ZM9.39131 5.21738L0 0V1.47535L6.73561 5.21738H9.39131ZM2.50153 0L9.39131 3.828V0H2.50153Z" fill="#0052B4"/>
<path d="M9.39131 5.21738L0 0V1.47535L6.73561 5.21738H9.39131Z" fill="white"/>
<path d="M9.39131 5.21738L0 0V1.47535L6.73561 5.21738H9.39131Z" fill="#D80027"/>
<path d="M19.763 5.21743L23.9978 2.86477V5.21743H19.763ZM14.6064 4.55396V0H22.8029L14.6064 4.55396Z" fill="#0052B4"/>
<path d="M17.2621 5.21738L23.9978 1.47535V0L14.6064 5.21738H17.2621Z" fill="#D80027"/>
</svg>
