<svg xmlns="http://www.w3.org/2000/svg" width="60" height="60" fill="none"><g fill="#e4dfd9" clip-path="url(#a)"><path d="M29.943 10.955c.163-.022.527.326.66.434 1.044.845 2.03 1.77 2.87 2.82 3.798 4.746 5.83 11.49 5.193 17.53a21.03 21.03 0 0 1-5.754 12.358c-.907.947-1.843 1.727-2.86 2.553-.203-.012-.565-.377-.749-.522-6.176-4.853-9.12-12.669-7.774-20.399.985-5.65 3.653-11.346 8.414-14.774"/><path d="M46.463 12.803c.223.014.784 1.173.906 1.405 2.65 5.014 3.316 10.73 1.624 16.173a21.1 21.1 0 0 1-8.784 11.617 23 23 0 0 1-1.787 1.014c-.095.06-.086.078-.176.071.014-.081.452-.752.524-.871q.701-1.151 1.274-2.372c2.218-4.736 2.717-9.941 1.874-15.072a27 27 0 0 0-2.71-8.129.6.6 0 0 1-.064-.257c.081-.137.225-.222.352-.312a21 21 0 0 1 5.3-2.722c.552-.193 1.116-.353 1.667-.545M13.412 12.791c.15.02.277.065.42.107 2.474.737 4.843 1.819 6.918 3.366.025.018.107.091.106.126-.007.15-.105.294-.166.428-1.56 3.004-2.465 6.196-2.83 9.567-.522 4.8.174 9.734 2.386 14.065a29 29 0 0 0 1.067 1.907c.066.109.433.65.438.714l-.054.013c-.259-.17-.715-.377-1.011-.544-4.83-2.73-8.324-7.312-9.826-12.63a20.83 20.83 0 0 1 .857-13.751c.53-1.28 1.024-2.168 1.695-3.368"/><path d="M0 32.943c.29-.176.773-.4 1.09-.556a21.2 21.2 0 0 1 6.27-1.98 24.52 24.52 0 0 0 16.246 17.24q.637.21 1.285.386c.323.089.793.201 1.083.332-.513.037-1.145.237-1.679.344q-1.364.266-2.75.35c-5.275.332-10.885-1.658-14.869-5.11a20.9 20.9 0 0 1-5.814-8.347q-.216-.577-.408-1.162C.377 34.202.097 33.169 0 33.039zM52.65 30.393c.245.063.597.114.853.162q.639.123 1.267.288c2.076.546 3.347 1.156 5.23 2.092v.084c-.1.148-.405 1.246-.495 1.52q-.25.769-.565 1.515a20.73 20.73 0 0 1-7.507 9.335c-3.69 2.524-8.533 3.985-13.017 3.666a23 23 0 0 1-2.672-.342c-.59-.115-1.157-.27-1.755-.38 2.59-.705 4.306-1.239 6.713-2.556a24.4 24.4 0 0 0 10.723-11.832c.53-1.237.85-2.271 1.226-3.552"/></g><defs><clipPath id="a"><path fill="#fff" d="M0 0h60v60H0z"/></clipPath></defs></svg>