<svg width="210" height="70" viewBox="0 0 210 70" fill="none" xmlns="http://www.w3.org/2000/svg">
<rect width="210" height="70" fill="white"/>
<path d="M22.855 10.875C20.9409 10.876 19.0701 11.4442 17.4788 12.5079C15.8876 13.5716 14.6472 15.083 13.9144 16.8512C13.1817 18.6195 12.9894 20.5652 13.3619 22.4427C13.7343 24.3201 14.6549 26.0451 16.0072 27.3996C17.7605 29.153 21.8868 31.6895 22.131 34.3539C22.1676 34.7519 22.457 35.0779 22.855 35.0779C23.253 35.0779 23.5434 34.7519 23.5789 34.3539C23.8231 31.6895 27.9462 29.1573 29.6985 27.405C31.0523 26.051 31.9744 24.326 32.3481 22.448C32.7217 20.57 32.5302 18.6234 31.7978 16.8543C31.0654 15.0851 29.8248 13.5728 28.2331 12.5085C26.6413 11.4443 24.7697 10.8758 22.855 10.875ZM22.855 23.8682C22.42 23.8682 21.9893 23.7825 21.5875 23.6161C21.1857 23.4496 20.8206 23.2057 20.513 22.8981C20.2055 22.5906 19.9615 22.2254 19.795 21.8236C19.6286 21.4218 19.5429 20.9911 19.5429 20.5562C19.5429 20.1212 19.6286 19.6905 19.795 19.2887C19.9615 18.8869 20.2055 18.5217 20.513 18.2142C20.8206 17.9066 21.1857 17.6627 21.5875 17.4962C21.9893 17.3298 22.42 17.2441 22.855 17.2441C23.7334 17.2441 24.5758 17.5931 25.1969 18.2142C25.818 18.8353 26.167 19.6777 26.167 20.5562C26.167 21.4346 25.818 22.277 25.1969 22.8981C24.5758 23.5192 23.7334 23.8682 22.855 23.8682Z" fill="url(#paint0_linear_2713_8104)"/>
<path d="M60.4858 28.7243C59.3396 28.7243 58.3559 28.4343 57.5346 27.8543C56.718 27.2696 56.0892 26.4274 55.6484 25.3277C55.2122 24.2234 54.9941 22.8939 54.9941 21.3395C54.9988 19.785 55.2192 18.4626 55.6554 17.3722C56.0962 16.2771 56.7249 15.4419 57.5416 14.8665C58.3629 14.2911 59.3443 14.0034 60.4858 14.0034C61.6272 14.0034 62.6086 14.2911 63.4299 14.8665C64.2512 15.4419 64.88 16.2771 65.3162 17.3722C65.757 18.4672 65.9774 19.7897 65.9774 21.3395C65.9774 22.8986 65.757 24.2303 65.3162 25.3347C64.88 26.4344 64.2512 27.2743 63.4299 27.8543C62.6133 28.4343 61.6319 28.7243 60.4858 28.7243ZM60.4858 26.5457C61.3767 26.5457 62.0797 26.1073 62.5947 25.2303C63.1144 24.3486 63.3743 23.0517 63.3743 21.3395C63.3743 20.2073 63.2559 19.2561 63.0193 18.4858C62.7826 17.7155 62.4485 17.1355 62.017 16.7457C61.5855 16.3513 61.0751 16.1541 60.4858 16.1541C59.5995 16.1541 58.8988 16.5949 58.3838 17.4766C57.8687 18.3536 57.6089 19.6412 57.6042 21.3395C57.5996 22.4763 57.7133 23.4322 57.9453 24.2071C58.1819 24.982 58.516 25.5667 58.9475 25.9611C59.3791 26.3509 59.8918 26.5457 60.4858 26.5457Z" fill="#211D1C"/>
<path d="M53.9575 26.5039L53.867 27.2695C53.8021 27.8542 53.6861 28.4481 53.519 29.0513C53.3566 29.6592 53.1849 30.2183 53.004 30.7288C52.823 31.2392 52.6768 31.6406 52.5655 31.9329H50.8672C50.9321 31.6498 51.0203 31.2647 51.1317 30.7775C51.2477 30.2903 51.359 29.7427 51.4658 29.1349C51.5725 28.527 51.6444 27.9099 51.6815 27.2835L51.7303 26.5039H53.9575Z" fill="#211D1C"/>
<path d="M44.9824 28.6477C44.0544 28.6477 43.2238 28.4737 42.4906 28.1257C41.7575 27.773 41.1752 27.2904 40.7436 26.6779C40.3167 26.0654 40.0894 25.3648 40.0615 24.5759H42.5672C42.6136 25.1606 42.8665 25.6385 43.3259 26.0097C43.7852 26.3763 44.3374 26.5596 44.9824 26.5596C45.4882 26.5596 45.9383 26.4436 46.3327 26.2116C46.7271 25.9796 47.038 25.6571 47.2654 25.2441C47.4927 24.8312 47.6041 24.3602 47.5995 23.8312C47.6041 23.2929 47.4904 22.815 47.2584 22.3974C47.0264 21.9798 46.7085 21.6526 46.3048 21.416C45.9012 21.1747 45.4371 21.0541 44.9128 21.0541C44.4859 21.0494 44.066 21.1283 43.653 21.2907C43.24 21.4531 42.9129 21.6666 42.6716 21.9311L40.3399 21.5482L41.0847 14.1982H49.3534V16.3559H43.2215L42.8108 20.1353H42.8943C43.1588 19.8244 43.5324 19.5669 44.0149 19.3627C44.4975 19.1539 45.0265 19.0495 45.6019 19.0495C46.4649 19.0495 47.2352 19.2537 47.9127 19.662C48.5901 20.0657 49.1237 20.6225 49.5135 21.3325C49.9033 22.0424 50.0982 22.8544 50.0982 23.7686C50.0982 24.7105 49.8801 25.5504 49.4439 26.2882C49.0124 27.0213 48.4115 27.599 47.6412 28.0213C46.8756 28.4389 45.9893 28.6477 44.9824 28.6477Z" fill="#211D1C"/>
<path d="M94.5652 13.967C94.8162 13.4273 95.583 13.4273 95.834 13.967L97.8123 18.2258C97.9144 18.4453 98.123 18.5959 98.3633 18.625L103.024 19.1911C103.615 19.2631 103.852 19.9928 103.416 20.3983L99.9779 23.5948C99.8007 23.7595 99.721 24.004 99.7674 24.2415L100.67 28.8489C100.784 29.4334 100.163 29.8849 99.643 29.5954L95.54 27.3135C95.3284 27.1958 95.0708 27.1958 94.8592 27.3135L90.7562 29.5954C90.2358 29.8849 89.6149 29.4334 89.7295 28.8489L90.6318 24.2415C90.6782 24.004 90.5985 23.7595 90.4213 23.5948L86.9828 20.3983C86.5468 19.9928 86.7843 19.2631 87.3752 19.1911L92.0359 18.625C92.2762 18.5959 92.4849 18.4453 92.5869 18.2258L94.5652 13.967Z" fill="#FFCC00"/>
<path d="M116.965 13.967C117.216 13.4273 117.983 13.4273 118.234 13.967L120.212 18.2258C120.314 18.4453 120.523 18.5959 120.763 18.625L125.424 19.1911C126.015 19.2631 126.252 19.9928 125.816 20.3983L122.378 23.5948C122.201 23.7595 122.121 24.004 122.167 24.2415L123.07 28.8489C123.184 29.4334 122.563 29.8849 122.043 29.5954L117.94 27.3135C117.728 27.1958 117.471 27.1958 117.259 27.3135L113.156 29.5954C112.636 29.8849 112.015 29.4334 112.129 28.8489L113.032 24.2415C113.078 24.004 112.999 23.7595 112.821 23.5948L109.383 20.3983C108.947 19.9928 109.184 19.2631 109.775 19.1911L114.436 18.625C114.676 18.5959 114.885 18.4453 114.987 18.2258L116.965 13.967Z" fill="#FFCC00"/>
<path d="M139.365 13.967C139.616 13.4273 140.383 13.4273 140.634 13.967L142.612 18.2258C142.714 18.4453 142.923 18.5959 143.163 18.625L147.824 19.1911C148.415 19.2631 148.652 19.9928 148.216 20.3983L144.778 23.5948C144.601 23.7595 144.521 24.004 144.567 24.2415L145.47 28.8489C145.584 29.4334 144.963 29.8849 144.443 29.5954L140.34 27.3135C140.128 27.1958 139.871 27.1958 139.659 27.3135L135.556 29.5954C135.036 29.8849 134.415 29.4334 134.529 28.8489L135.432 24.2415C135.478 24.004 135.399 23.7595 135.221 23.5948L131.783 20.3983C131.347 19.9928 131.584 19.2631 132.175 19.1911L136.836 18.625C137.076 18.5959 137.285 18.4453 137.387 18.2258L139.365 13.967Z" fill="#FFCC00"/>
<path d="M161.765 13.967C162.016 13.4273 162.783 13.4273 163.034 13.967L165.012 18.2258C165.114 18.4453 165.323 18.5959 165.563 18.625L170.224 19.1911C170.815 19.2631 171.052 19.9928 170.616 20.3983L167.178 23.5948C167.001 23.7595 166.921 24.004 166.967 24.2415L167.87 28.8489C167.984 29.4334 167.363 29.8849 166.843 29.5954L162.74 27.3135C162.528 27.1958 162.271 27.1958 162.059 27.3135L157.956 29.5954C157.436 29.8849 156.815 29.4334 156.929 28.8489L157.832 24.2415C157.878 24.004 157.799 23.7595 157.621 23.5948L154.183 20.3983C153.747 19.9928 153.984 19.2631 154.575 19.1911L159.236 18.625C159.476 18.5959 159.685 18.4453 159.787 18.2258L161.765 13.967Z" fill="#FFCC00"/>
<path d="M184.165 13.967C184.416 13.4273 185.183 13.4273 185.434 13.967L187.412 18.2258C187.514 18.4453 187.723 18.5959 187.963 18.625L192.624 19.1911C193.215 19.2631 193.452 19.9928 193.016 20.3983L189.578 23.5948C189.401 23.7595 189.321 24.004 189.367 24.2415L190.27 28.8489C190.384 29.4334 189.763 29.8849 189.243 29.5954L185.14 27.3135C184.928 27.1958 184.671 27.1958 184.459 27.3135L180.356 29.5954C179.836 29.8849 179.215 29.4334 179.329 28.8489L180.232 24.2415C180.278 24.004 180.199 23.7595 180.021 23.5948L176.583 20.3983C176.147 19.9928 176.384 19.2631 176.975 19.1911L181.636 18.625C181.876 18.5959 182.085 18.4453 182.187 18.2258L184.165 13.967Z" fill="#FFCC00"/>
<path d="M176.627 56.1793C176.075 56.1793 175.593 56.0449 175.183 55.7761C174.779 55.4998 174.466 55.1265 174.242 54.6561C174.025 54.1857 173.917 53.6556 173.917 53.0657C173.917 52.4609 174.029 51.9233 174.253 51.4529C174.484 50.975 174.802 50.6017 175.205 50.3329C175.616 50.0641 176.086 49.9297 176.616 49.9297C177.184 49.9297 177.662 50.0417 178.05 50.2657C178.446 50.4897 178.748 50.8108 178.957 51.2289C179.166 51.6396 179.271 52.1324 179.271 52.7073C179.271 52.8044 179.267 52.9014 179.259 52.9985C179.259 53.0881 179.256 53.1665 179.248 53.2337H174.488V52.4497H178.285C178.278 52.1958 178.236 51.9681 178.162 51.7665C178.095 51.5574 177.99 51.382 177.848 51.2401C177.714 51.0908 177.542 50.9788 177.333 50.9041C177.131 50.822 176.892 50.7809 176.616 50.7809C176.265 50.7809 175.955 50.8705 175.687 51.0497C175.425 51.2214 175.22 51.4753 175.071 51.8113C174.929 52.1473 174.858 52.5654 174.858 53.0657C174.858 53.5436 174.932 53.9505 175.082 54.2865C175.231 54.6225 175.44 54.8801 175.709 55.0593C175.985 55.231 176.303 55.3169 176.661 55.3169C177.131 55.3169 177.486 55.2198 177.725 55.0257C177.971 54.8241 178.151 54.5665 178.263 54.2529L179.091 54.4769C178.972 54.9548 178.707 55.358 178.296 55.6865C177.893 56.015 177.337 56.1793 176.627 56.1793Z" fill="#211D1C"/>
<path d="M170.723 56.1793C170.17 56.1793 169.688 56.0524 169.278 55.7985C168.867 55.5372 168.546 55.1713 168.315 54.7009C168.091 54.2305 167.979 53.6817 167.979 53.0545C167.979 52.4198 168.098 51.871 168.337 51.4081C168.576 50.9377 168.904 50.5756 169.323 50.3217C169.741 50.0604 170.219 49.9297 170.756 49.9297C171.465 49.9297 172.033 50.1126 172.459 50.4785C172.884 50.8369 173.138 51.2998 173.22 51.8673L172.313 52.0241C172.238 51.6657 172.067 51.3708 171.798 51.1393C171.536 50.9078 171.185 50.7921 170.745 50.7921C170.387 50.7921 170.069 50.8817 169.793 51.0609C169.524 51.2326 169.311 51.4865 169.155 51.8225C168.998 52.1585 168.919 52.5692 168.919 53.0545C168.919 53.5324 168.998 53.943 169.155 54.2865C169.311 54.6225 169.524 54.8801 169.793 55.0593C170.069 55.231 170.387 55.3169 170.745 55.3169C171.163 55.3169 171.499 55.2161 171.753 55.0145C172.007 54.8054 172.193 54.4993 172.313 54.0961L173.175 54.3089C173.041 54.8689 172.765 55.3206 172.347 55.6641C171.936 56.0076 171.395 56.1793 170.723 56.1793Z" fill="#211D1C"/>
<path d="M162.934 56.0001V50.1089H163.886V52.7857H163.93L166.54 50.1089H167.671V50.1537L164.961 52.8753L167.626 55.9553V56.0001H166.45L163.93 53.0321H163.886V56.0001H162.934Z" fill="#211D1C"/>
<path d="M159.029 56.1793C158.476 56.1793 157.995 56.0449 157.584 55.7761C157.181 55.4998 156.867 55.1265 156.643 54.6561C156.427 54.1857 156.318 53.6556 156.318 53.0657C156.318 52.4609 156.43 51.9233 156.654 51.4529C156.886 50.975 157.203 50.6017 157.606 50.3329C158.017 50.0641 158.487 49.9297 159.018 49.9297C159.585 49.9297 160.063 50.0417 160.451 50.2657C160.847 50.4897 161.149 50.8108 161.358 51.2289C161.567 51.6396 161.672 52.1324 161.672 52.7073C161.672 52.8044 161.668 52.9014 161.661 52.9985C161.661 53.0881 161.657 53.1665 161.65 53.2337H156.89V52.4497H160.686C160.679 52.1958 160.638 51.9681 160.563 51.7665C160.496 51.5574 160.391 51.382 160.25 51.2401C160.115 51.0908 159.943 50.9788 159.734 50.9041C159.533 50.822 159.294 50.7809 159.018 50.7809C158.667 50.7809 158.357 50.8705 158.088 51.0497C157.827 51.2214 157.621 51.4753 157.472 51.8113C157.33 52.1473 157.259 52.5654 157.259 53.0657C157.259 53.5436 157.334 53.9505 157.483 54.2865C157.632 54.6225 157.842 54.8801 158.11 55.0593C158.387 55.231 158.704 55.3169 159.062 55.3169C159.533 55.3169 159.887 55.2198 160.126 55.0257C160.373 54.8241 160.552 54.5665 160.664 54.2529L161.493 54.4769C161.373 54.9548 161.108 55.358 160.698 55.6865C160.294 56.015 159.738 56.1793 159.029 56.1793Z" fill="#211D1C"/>
<path d="M149.577 57.7025V55.1377H150.16C150.272 55.0108 150.372 54.8092 150.462 54.5329C150.559 54.2492 150.634 53.9206 150.686 53.5473C150.746 53.174 150.776 52.7894 150.776 52.3937V50.1089H154.808V55.1377H155.625V57.7025H154.718V56.0001H150.484V57.7025H149.577ZM151.201 55.1377H153.867V50.9713H151.66V52.4721C151.66 52.9201 151.645 53.3009 151.616 53.6145C151.586 53.9206 151.537 54.1894 151.47 54.4209C151.403 54.6449 151.313 54.854 151.201 55.0481V55.1377Z" fill="#211D1C"/>
<path d="M143.694 56.0001V50.1089H144.635V56.0001H143.694ZM144.187 53.4577V52.5953H147.962V53.4577H144.187ZM147.514 56.0001V50.1089H148.454V56.0001H147.514Z" fill="#211D1C"/>
<path d="M139.257 52.0015H141.452V52.9087H139.279C138.861 52.9087 138.495 52.849 138.182 52.7295C137.868 52.6026 137.607 52.4308 137.398 52.2143C137.189 51.9903 137.032 51.729 136.927 51.4303C136.823 51.1316 136.771 50.8031 136.771 50.4447C136.771 49.8922 136.886 49.433 137.118 49.0671C137.349 48.7012 137.655 48.4287 138.036 48.2495C138.424 48.0703 138.839 47.9807 139.279 47.9807H141.956V55.9999H141.004V48.8879H139.257C138.943 48.8879 138.671 48.9514 138.439 49.0783C138.208 49.1978 138.029 49.3732 137.902 49.6047C137.782 49.8362 137.723 50.1162 137.723 50.4447C137.723 50.7658 137.782 51.0458 137.902 51.2847C138.029 51.5162 138.208 51.6954 138.439 51.8223C138.671 51.9418 138.943 52.0015 139.257 52.0015ZM136.435 55.9999V55.9551L138.876 52.4159L139.907 52.4719L137.555 55.9999H136.435Z" fill="#211D1C"/>
<path d="M127.955 56.0001V50.1089H130.8C131.113 50.1089 131.393 50.1761 131.64 50.3105C131.886 50.4449 132.08 50.6316 132.222 50.8705C132.372 51.102 132.446 51.3633 132.446 51.6545C132.446 51.9532 132.379 52.2182 132.245 52.4497C132.118 52.6737 131.953 52.8417 131.752 52.9537V52.9985C132.021 53.103 132.237 53.2673 132.401 53.4913C132.566 53.7153 132.648 53.9804 132.648 54.2865C132.648 54.6225 132.569 54.9212 132.413 55.1825C132.256 55.4364 132.047 55.638 131.785 55.7873C131.532 55.9292 131.252 56.0001 130.945 56.0001H127.955ZM128.896 50.9713V55.1377H130.867C131.091 55.1377 131.285 55.0556 131.449 54.8913C131.614 54.7196 131.696 54.5068 131.696 54.2529C131.696 54.0065 131.614 53.8012 131.449 53.6369C131.285 53.4726 131.091 53.3905 130.867 53.3905H128.56V52.5953H130.744C130.96 52.5953 131.143 52.5206 131.293 52.3713C131.442 52.2145 131.517 52.0204 131.517 51.7889C131.517 51.5574 131.438 51.3633 131.281 51.2065C131.132 51.0497 130.949 50.9713 130.733 50.9713H128.896Z" fill="#211D1C"/>
<path d="M118.604 56.0001V50.1089H119.544V53.5025L119.5 54.6113H119.544L122.535 50.1089H123.476V56.0001H122.535V52.6065L122.58 51.4977H122.535L119.544 56.0001H118.604Z" fill="#211D1C"/>
<path d="M112.117 56.0001V50.1089H113.058V53.5025L113.013 54.6113H113.058L116.048 50.1089H116.989V56.0001H116.048V52.6065L116.093 51.4977H116.048L113.058 56.0001H112.117Z" fill="#211D1C"/>
<path d="M109.959 57.7025V56.0001H105.479V50.1089H106.419V55.1377H109.107V50.1089H110.048V55.1377H110.866V57.7025H109.959Z" fill="#211D1C"/>
<path d="M101.09 56.1793C100.687 56.1793 100.332 56.1046 100.026 55.9553C99.72 55.806 99.4811 55.5969 99.3094 55.3281C99.1376 55.0518 99.0518 54.727 99.0518 54.3537C99.0518 53.958 99.1526 53.6294 99.3542 53.3681C99.5632 53.0993 99.8358 52.8977 100.172 52.7633C100.515 52.6289 100.885 52.5617 101.281 52.5617C101.512 52.5617 101.725 52.5729 101.919 52.5953C102.121 52.6102 102.311 52.6364 102.49 52.6737C102.677 52.711 102.856 52.7596 103.028 52.8193V52.1697C103.028 51.7441 102.886 51.4081 102.602 51.1617C102.318 50.9078 101.956 50.7809 101.516 50.7809C101.127 50.7809 100.806 50.8705 100.553 51.0497C100.299 51.2214 100.123 51.479 100.026 51.8225L99.175 51.6097C99.2422 51.2588 99.384 50.9601 99.6006 50.7137C99.8171 50.4598 100.09 50.2657 100.418 50.1313C100.754 49.9969 101.12 49.9297 101.516 49.9297C102.285 49.9297 102.878 50.1238 103.297 50.5121C103.722 50.9004 103.935 51.4454 103.935 52.1473V56.0001H103.028V55.2273H102.983C102.878 55.3766 102.74 55.526 102.569 55.6753C102.397 55.8246 102.188 55.9441 101.941 56.0337C101.702 56.1308 101.419 56.1793 101.09 56.1793ZM101.258 55.3505C101.602 55.3505 101.904 55.2758 102.165 55.1265C102.434 54.9772 102.643 54.7718 102.793 54.5105C102.949 54.2417 103.028 53.943 103.028 53.6145C102.751 53.51 102.486 53.4353 102.233 53.3905C101.979 53.3457 101.717 53.3233 101.449 53.3233C101.023 53.3233 100.676 53.4054 100.407 53.5697C100.146 53.7265 100.015 53.9878 100.015 54.3537C100.015 54.6524 100.131 54.895 100.362 55.0817C100.601 55.2609 100.9 55.3505 101.258 55.3505Z" fill="#211D1C"/>
<path d="M95.793 56.1793C95.4047 56.1793 95.0351 56.1158 94.6842 55.9889C94.3332 55.8545 94.0346 55.6566 93.7882 55.3953C93.5418 55.1265 93.3738 54.7942 93.2842 54.3985L94.1914 54.2417C94.3108 54.6524 94.5087 54.9398 94.785 55.1041C95.0687 55.2609 95.4047 55.3393 95.793 55.3393C96.2111 55.3393 96.5471 55.2497 96.801 55.0705C97.0548 54.8838 97.1818 54.6412 97.1818 54.3425C97.1818 54.0737 97.0735 53.8646 96.857 53.7153C96.6479 53.5585 96.3604 53.4801 95.9946 53.4801H95.0426V52.6177H95.9162C96.2522 52.6177 96.5172 52.5356 96.7114 52.3713C96.9055 52.207 97.0026 51.9868 97.0026 51.7105C97.0026 51.4268 96.8831 51.199 96.6442 51.0273C96.4127 50.8556 96.1028 50.7697 95.7146 50.7697C95.3188 50.7697 94.9978 50.8593 94.7514 51.0385C94.505 51.2102 94.3183 51.4716 94.1914 51.8225L93.3514 51.5761C93.4783 51.1953 93.6575 50.8854 93.889 50.6465C94.1204 50.4001 94.393 50.2209 94.7066 50.1089C95.0202 49.9894 95.3599 49.9297 95.7258 49.9297C96.1812 49.9297 96.577 50.0044 96.913 50.1537C97.249 50.2956 97.5066 50.4972 97.6858 50.7585C97.8724 51.0198 97.9658 51.3297 97.9658 51.6881C97.9658 51.9718 97.8911 52.2294 97.7418 52.4609C97.5924 52.6849 97.3871 52.8529 97.1258 52.9649V53.0097C97.4468 53.1292 97.697 53.3196 97.8762 53.5809C98.0628 53.8422 98.1562 54.126 98.1562 54.4321C98.1562 54.7905 98.0591 55.1004 97.865 55.3617C97.6708 55.623 97.3946 55.8246 97.0362 55.9665C96.6852 56.1084 96.2708 56.1793 95.793 56.1793Z" fill="#211D1C"/>
<path d="M87.1689 56.0001V50.1089H88.1097V53.5025L88.0649 54.6113H88.1097L91.1001 50.1089H92.0409V56.0001H91.1001V52.6065L91.1449 51.4977H91.1001L88.1097 56.0001H87.1689Z" fill="#211D1C"/>
<path d="M80.793 56.0001V50.1089H81.7338V56.0001H80.793ZM81.2858 53.4577V52.5953H85.0602V53.4577H81.2858ZM84.6122 56.0001V50.1089H85.553V56.0001H84.6122Z" fill="#211D1C"/>
<path d="M76.4036 56.1793C76.0004 56.1793 75.6458 56.1046 75.3396 55.9553C75.0335 55.806 74.7946 55.5969 74.6228 55.3281C74.4511 55.0518 74.3652 54.727 74.3652 54.3537C74.3652 53.958 74.466 53.6294 74.6676 53.3681C74.8767 53.0993 75.1492 52.8977 75.4852 52.7633C75.8287 52.6289 76.1983 52.5617 76.594 52.5617C76.8255 52.5617 77.0383 52.5729 77.2324 52.5953C77.434 52.6102 77.6244 52.6364 77.8036 52.6737C77.9903 52.711 78.1695 52.7596 78.3412 52.8193V52.1697C78.3412 51.7441 78.1994 51.4081 77.9156 51.1617C77.6319 50.9078 77.2698 50.7809 76.8292 50.7809C76.441 50.7809 76.1199 50.8705 75.866 51.0497C75.6122 51.2214 75.4367 51.479 75.3396 51.8225L74.4884 51.6097C74.5556 51.2588 74.6975 50.9601 74.914 50.7137C75.1306 50.4598 75.4031 50.2657 75.7316 50.1313C76.0676 49.9969 76.4335 49.9297 76.8292 49.9297C77.5983 49.9297 78.1919 50.1238 78.61 50.5121C79.0356 50.9004 79.2484 51.4454 79.2484 52.1473V56.0001H78.3412V55.2273H78.2964C78.1919 55.3766 78.0538 55.526 77.882 55.6753C77.7103 55.8246 77.5012 55.9441 77.2548 56.0337C77.0159 56.1308 76.7322 56.1793 76.4036 56.1793ZM76.5716 55.3505C76.9151 55.3505 77.2175 55.2758 77.4788 55.1265C77.7476 54.9772 77.9567 54.7718 78.106 54.5105C78.2628 54.2417 78.3412 53.943 78.3412 53.6145C78.065 53.51 77.7999 53.4353 77.546 53.3905C77.2922 53.3457 77.0308 53.3233 76.762 53.3233C76.3364 53.3233 75.9892 53.4054 75.7204 53.5697C75.4591 53.7265 75.3284 53.9878 75.3284 54.3537C75.3284 54.6524 75.4442 54.895 75.6756 55.0817C75.9146 55.2609 76.2132 55.3505 76.5716 55.3505Z" fill="#211D1C"/>
<path d="M70.1396 56.0001V50.1089H73.6564V50.9713H71.0804V56.0001H70.1396Z" fill="#211D1C"/>
<path d="M63.4346 58.4193V50.1089H64.3306V50.9713H64.3754C64.4799 50.7846 64.6218 50.6129 64.801 50.4561C64.9876 50.2993 65.2042 50.1724 65.4506 50.0753C65.7044 49.9782 65.9695 49.9297 66.2458 49.9297C66.7759 49.9297 67.2388 50.0604 67.6346 50.3217C68.0303 50.583 68.3364 50.9489 68.553 51.4193C68.7695 51.8897 68.8778 52.4348 68.8778 53.0545C68.8778 53.6742 68.7658 54.2193 68.5418 54.6897C68.3252 55.1601 68.0191 55.526 67.6234 55.7873C67.2351 56.0486 66.7759 56.1793 66.2458 56.1793C65.7903 56.1793 65.402 56.086 65.081 55.8993C64.7599 55.7052 64.5247 55.4812 64.3754 55.2273H64.3306L64.3754 56.0001V58.4193H63.4346ZM66.145 55.3169C66.4959 55.3169 66.8058 55.231 67.0746 55.0593C67.3434 54.8876 67.5524 54.6337 67.7018 54.2977C67.8586 53.9542 67.937 53.5398 67.937 53.0545C67.937 52.5617 67.8586 52.1473 67.7018 51.8113C67.5524 51.4753 67.3434 51.2214 67.0746 51.0497C66.8058 50.878 66.4959 50.7921 66.145 50.7921C65.794 50.7921 65.4804 50.878 65.2042 51.0497C64.9354 51.2214 64.7226 51.4753 64.5658 51.8113C64.409 52.1473 64.3306 52.5617 64.3306 53.0545C64.3306 53.5398 64.409 53.9542 64.5658 54.2977C64.7226 54.6337 64.9354 54.8876 65.2042 55.0593C65.4804 55.231 65.794 55.3169 66.145 55.3169Z" fill="#211D1C"/>
<path d="M59.3693 56.1793C58.7943 56.1793 58.2941 56.0486 57.8685 55.7873C57.4503 55.5185 57.1255 55.1489 56.8941 54.6785C56.6626 54.2081 56.5469 53.6668 56.5469 53.0545C56.5469 52.4348 56.6626 51.8934 56.8941 51.4305C57.1255 50.9601 57.4503 50.5942 57.8685 50.3329C58.2941 50.0641 58.7943 49.9297 59.3693 49.9297C59.9442 49.9297 60.4407 50.0641 60.8589 50.3329C61.277 50.5942 61.5981 50.9601 61.8221 51.4305C62.0535 51.8934 62.1693 52.4348 62.1693 53.0545C62.1693 53.6668 62.0535 54.2081 61.8221 54.6785C61.5981 55.1489 61.277 55.5185 60.8589 55.7873C60.4407 56.0486 59.9442 56.1793 59.3693 56.1793ZM59.3693 55.3169C59.7351 55.3169 60.0562 55.2273 60.3325 55.0481C60.6162 54.8689 60.8365 54.6113 60.9933 54.2753C61.1501 53.9393 61.2285 53.5324 61.2285 53.0545C61.2285 52.5766 61.1501 52.1697 60.9933 51.8337C60.8365 51.4977 60.6162 51.2401 60.3325 51.0609C60.0562 50.8817 59.7351 50.7921 59.3693 50.7921C59.0034 50.7921 58.6786 50.8817 58.3949 51.0609C58.1111 51.2401 57.8871 51.4977 57.7229 51.8337C57.5661 52.1697 57.4877 52.5766 57.4877 53.0545C57.4877 53.5324 57.5661 53.9393 57.7229 54.2753C57.8871 54.6113 58.1111 54.8689 58.3949 55.0481C58.6786 55.2273 59.0034 55.3169 59.3693 55.3169Z" fill="#211D1C"/>
<path d="M49.3799 56.0001V50.1089H52.8967V50.9713H50.3207V56.0001H49.3799Z" fill="#211D1C"/>
<path d="M43.0039 56.0001V50.1089H43.9447V56.0001H43.0039ZM43.4967 53.4577V52.5953H47.2711V53.4577H43.4967ZM46.8231 56.0001V50.1089H47.7639V56.0001H46.8231Z" fill="#211D1C"/>
<path d="M36.5176 56.0001V50.1089H37.4584V53.5025L37.4136 54.6113H37.4584L40.4488 50.1089H41.3896V56.0001H40.4488V52.6065L40.4936 51.4977H40.4488L37.4584 56.0001H36.5176Z" fill="#211D1C"/>
<path d="M32.5584 56.0001V50.5233H33.4992V56.0001H32.5584ZM30.6768 50.9713V50.1089H35.392V50.9713H30.6768Z" fill="#211D1C"/>
<path d="M24.6719 56V50.1088H25.6127V53.5024L25.5679 54.6112H25.6127L28.6031 50.1088H29.5439V56H28.6031V52.6064L28.6479 51.4976H28.6031L25.6127 56H24.6719ZM27.1247 48.8656C26.7663 48.8656 26.4601 48.7984 26.2063 48.664C25.9599 48.5296 25.7732 48.3467 25.6463 48.1152C25.5193 47.8763 25.4559 47.6075 25.4559 47.3088H26.2623C26.2623 47.5254 26.3295 47.727 26.4639 47.9136C26.6057 48.1003 26.826 48.1936 27.1247 48.1936C27.4233 48.1936 27.6361 48.1003 27.7631 47.9136C27.8975 47.727 27.9647 47.5254 27.9647 47.3088H28.7599C28.7599 47.6075 28.6964 47.8763 28.5695 48.1152C28.45 48.3467 28.2671 48.5296 28.0207 48.664C27.7817 48.7984 27.4831 48.8656 27.1247 48.8656Z" fill="#211D1C"/>
<path d="M20.768 56.1793C20.2155 56.1793 19.7339 56.0449 19.3232 55.7761C18.92 55.4998 18.6064 55.1265 18.3824 54.6561C18.1659 54.1857 18.0576 53.6556 18.0576 53.0657C18.0576 52.4609 18.1696 51.9233 18.3936 51.4529C18.6251 50.975 18.9424 50.6017 19.3456 50.3329C19.7563 50.0641 20.2267 49.9297 20.7568 49.9297C21.3243 49.9297 21.8022 50.0417 22.1904 50.2657C22.5862 50.4897 22.8886 50.8108 23.0976 51.2289C23.3067 51.6396 23.4112 52.1324 23.4112 52.7073C23.4112 52.8044 23.4075 52.9014 23.4 52.9985C23.4 53.0881 23.3963 53.1665 23.3888 53.2337H18.6288V52.4497H22.4256C22.4182 52.1958 22.3771 51.9681 22.3024 51.7665C22.2352 51.5574 22.1307 51.382 21.9888 51.2401C21.8544 51.0908 21.6827 50.9788 21.4736 50.9041C21.272 50.822 21.0331 50.7809 20.7568 50.7809C20.4059 50.7809 20.096 50.8705 19.8272 51.0497C19.5659 51.2214 19.3606 51.4753 19.2112 51.8113C19.0694 52.1473 18.9984 52.5654 18.9984 53.0657C18.9984 53.5436 19.0731 53.9505 19.2224 54.2865C19.3718 54.6225 19.5808 54.8801 19.8496 55.0593C20.1259 55.231 20.4432 55.3169 20.8016 55.3169C21.272 55.3169 21.6267 55.2198 21.8656 55.0257C22.112 54.8241 22.2912 54.5665 22.4032 54.2529L23.232 54.4769C23.1126 54.9548 22.8475 55.358 22.4368 55.6865C22.0336 56.015 21.4774 56.1793 20.768 56.1793Z" fill="#211D1C"/>
<path d="M12.1299 55.9999V47.9807H15.0867C15.5347 47.9807 15.9491 48.0703 16.3299 48.2495C16.7107 48.4212 17.0168 48.6863 17.2483 49.0447C17.4797 49.4031 17.5955 49.8586 17.5955 50.4111C17.5955 50.9636 17.4797 51.4191 17.2483 51.7775C17.0168 52.1359 16.7107 52.4047 16.3299 52.5839C15.9491 52.7556 15.5347 52.8415 15.0867 52.8415H12.6675V51.9343H15.1091C15.4301 51.9343 15.7027 51.8746 15.9267 51.7551C16.1581 51.6356 16.3336 51.4639 16.4531 51.2399C16.58 51.0084 16.6435 50.7322 16.6435 50.4111C16.6435 50.0826 16.58 49.8063 16.4531 49.5823C16.3336 49.3583 16.1581 49.1866 15.9267 49.0671C15.7027 48.9476 15.4301 48.8879 15.1091 48.8879H13.0819V55.9999H12.1299Z" fill="#211D1C"/>
<defs>
<linearGradient id="paint0_linear_2713_8104" x1="22.8555" y1="10.875" x2="22.8555" y2="35.0779" gradientUnits="userSpaceOnUse">
<stop stop-color="#FE5E21"/>
<stop offset="1" stop-color="#F32912"/>
</linearGradient>
</defs>
</svg>
