<svg xmlns="http://www.w3.org/2000/svg" width="210" height="70" fill="none"><path fill="#fff" d="M0 0h210v70H0z"/><path fill="url(#a)" d="M22.855 10.875A9.683 9.683 0 0 0 16.007 27.4c1.753 1.753 5.88 4.29 6.124 6.954.037.398.326.724.724.724s.688-.326.724-.724c.244-2.665 4.367-5.197 6.12-6.949a9.684 9.684 0 0 0-6.844-16.53m0 12.993a3.313 3.313 0 1 1 0-6.625 3.313 3.313 0 0 1 0 6.625"/><path fill="#211d1c" d="M60.486 28.724q-1.72 0-2.951-.87-1.225-.877-1.887-2.526-.654-1.657-.654-3.988.007-2.332.661-3.968.661-1.642 1.887-2.505 1.23-.864 2.944-.864 1.712 0 2.944.864 1.232.862 1.886 2.505.661 1.643.661 3.968 0 2.338-.66 3.995-.656 1.65-1.887 2.52-1.225.87-2.944.87m0-2.178q1.336 0 2.109-1.316.78-1.322.78-3.89-.001-1.7-.356-2.854-.354-1.155-1.002-1.74a2.2 2.2 0 0 0-1.531-.592q-1.33 0-2.102 1.323-.773 1.315-.78 3.863-.006 1.704.341 2.867.355 1.163 1.002 1.754.648.585 1.539.585M53.958 26.504l-.091.765a11.4 11.4 0 0 1-.348 1.782 22 22 0 0 1-.515 1.678q-.271.766-.438 1.204h-1.699l.265-1.155q.174-.732.334-1.643.16-.912.215-1.852l.05-.78zM44.982 28.648q-1.392 0-2.491-.522-1.1-.53-1.747-1.448a3.83 3.83 0 0 1-.682-2.102h2.505q.07.877.759 1.434.69.55 1.656.55.759 0 1.35-.348.593-.348.933-.968.343-.62.334-1.413.007-.807-.34-1.434a2.55 2.55 0 0 0-.954-.981q-.606-.362-1.392-.362a3.3 3.3 0 0 0-1.26.237q-.62.244-.981.64l-2.332-.383.745-7.35h8.268v2.158h-6.132l-.41 3.78h.083q.397-.468 1.12-.773a4 4 0 0 1 1.588-.314q1.294 0 2.31.613 1.017.605 1.602 1.67t.584 2.437q0 1.412-.654 2.52a4.63 4.63 0 0 1-1.803 1.732q-1.148.627-2.659.627"/><path fill="#fc0" d="M94.565 13.967a.7.7 0 0 1 1.269 0l1.978 4.259a.7.7 0 0 0 .551.399l4.661.566a.7.7 0 0 1 .392 1.207l-3.438 3.197a.7.7 0 0 0-.21.646l.902 4.608a.7.7 0 0 1-1.027.746l-4.103-2.281a.7.7 0 0 0-.68 0l-4.104 2.281a.7.7 0 0 1-1.026-.746l.902-4.608a.7.7 0 0 0-.21-.646l-3.44-3.197a.7.7 0 0 1 .393-1.207l4.66-.566a.7.7 0 0 0 .552-.4zM116.965 13.967a.7.7 0 0 1 1.269 0l1.978 4.259a.7.7 0 0 0 .551.399l4.661.566a.7.7 0 0 1 .392 1.207l-3.438 3.197a.7.7 0 0 0-.211.646l.903 4.608a.7.7 0 0 1-1.027.746l-4.103-2.281a.7.7 0 0 0-.681 0l-4.103 2.281a.7.7 0 0 1-1.027-.746l.903-4.608a.7.7 0 0 0-.211-.646l-3.438-3.197a.7.7 0 0 1 .392-1.207l4.661-.566a.7.7 0 0 0 .551-.4zM139.365 13.967a.7.7 0 0 1 1.269 0l1.978 4.259a.7.7 0 0 0 .551.399l4.661.566a.7.7 0 0 1 .392 1.207l-3.438 3.197a.7.7 0 0 0-.211.646l.903 4.608a.7.7 0 0 1-1.027.746l-4.103-2.281a.7.7 0 0 0-.681 0l-4.103 2.281a.7.7 0 0 1-1.027-.746l.903-4.608a.7.7 0 0 0-.211-.646l-3.438-3.197a.7.7 0 0 1 .392-1.207l4.661-.566a.7.7 0 0 0 .551-.4zM161.765 13.967a.7.7 0 0 1 1.269 0l1.978 4.259a.7.7 0 0 0 .551.399l4.661.566a.7.7 0 0 1 .392 1.207l-3.438 3.197a.7.7 0 0 0-.211.646l.903 4.608a.7.7 0 0 1-1.027.746l-4.103-2.281a.7.7 0 0 0-.681 0l-4.103 2.281a.7.7 0 0 1-1.027-.746l.903-4.608a.7.7 0 0 0-.211-.646l-3.438-3.197a.7.7 0 0 1 .392-1.207l4.661-.566a.7.7 0 0 0 .551-.4zM184.165 13.967a.7.7 0 0 1 1.269 0l1.978 4.259a.7.7 0 0 0 .551.399l4.661.566a.7.7 0 0 1 .392 1.207l-3.438 3.197a.7.7 0 0 0-.211.646l.903 4.608a.7.7 0 0 1-1.027.746l-4.103-2.281a.7.7 0 0 0-.681 0l-4.103 2.281a.7.7 0 0 1-1.027-.746l.903-4.608a.7.7 0 0 0-.211-.646l-3.438-3.197a.7.7 0 0 1 .392-1.207l4.661-.566a.7.7 0 0 0 .551-.4z"/><path fill="#211d1c" d="M176.627 56.18q-.829 0-1.444-.404a2.76 2.76 0 0 1-.941-1.12q-.325-.705-.325-1.59 0-.908.336-1.613.347-.717.952-1.12a2.5 2.5 0 0 1 1.411-.403q.852 0 1.434.336.594.336.907.963.314.615.314 1.478 0 .145-.012.291 0 .135-.011.236h-4.76v-.784h3.797a2.2 2.2 0 0 0-.123-.684 1.3 1.3 0 0 0-.314-.526 1.24 1.24 0 0 0-.515-.336 1.9 1.9 0 0 0-.717-.123q-.527 0-.929.269-.393.257-.616.761-.213.504-.213 1.255 0 .717.224 1.22.224.505.627.773.415.258.952.258.705 0 1.064-.291.37-.303.538-.773l.828.224a2.2 2.2 0 0 1-.795 1.21q-.604.492-1.669.492M170.723 56.18q-.83 0-1.445-.382a2.65 2.65 0 0 1-.963-1.097q-.336-.706-.336-1.647 0-.951.358-1.646.358-.705.986-1.086a2.65 2.65 0 0 1 1.433-.392q1.064 0 1.703.548.638.538.761 1.39l-.907.156a1.55 1.55 0 0 0-.515-.885q-.393-.347-1.053-.347-.537 0-.952.269a1.75 1.75 0 0 0-.638.761q-.236.504-.236 1.232 0 .717.236 1.232.234.505.638.773.415.258.952.258.627 0 1.008-.303.38-.314.56-.918l.862.213a2.43 2.43 0 0 1-.828 1.355q-.616.515-1.624.515M162.934 56V50.11h.952v2.677h.044l2.61-2.677h1.131v.045l-2.71 2.721 2.665 3.08V56h-1.176l-2.52-2.968h-.044V56zM159.029 56.18q-.829 0-1.445-.404a2.77 2.77 0 0 1-.941-1.12q-.325-.705-.325-1.59 0-.908.336-1.613.348-.717.952-1.12a2.5 2.5 0 0 1 1.412-.403q.85 0 1.433.336.594.336.907.963.314.615.314 1.478 0 .145-.011.291 0 .135-.011.236h-4.76v-.784h3.796a2.1 2.1 0 0 0-.123-.684 1.3 1.3 0 0 0-.313-.526 1.25 1.25 0 0 0-.516-.336 1.9 1.9 0 0 0-.716-.123q-.526 0-.93.269-.392.257-.616.761-.213.504-.213 1.255 0 .717.224 1.22.224.505.627.773.415.258.952.258.706 0 1.064-.291.37-.303.538-.773l.829.224q-.18.717-.795 1.21-.606.492-1.669.492M149.577 57.703v-2.565h.583q.167-.19.302-.605.146-.425.224-.986.09-.56.09-1.153v-2.285h4.032v5.029h.817v2.565h-.907V56h-4.234v1.703zm1.624-2.565h2.666V50.97h-2.207v1.501q0 .672-.044 1.142-.045.46-.146.807a3 3 0 0 1-.269.627zM143.694 56V50.11h.941V56zm.493-2.542v-.863h3.775v.863zM147.514 56V50.11h.94V56zM139.257 52.002h2.195v.907h-2.173a3.1 3.1 0 0 1-1.097-.18 2.2 2.2 0 0 1-.784-.515 2.2 2.2 0 0 1-.471-.784 3 3 0 0 1-.156-.985q0-.83.347-1.378a2.15 2.15 0 0 1 .918-.818 2.9 2.9 0 0 1 1.243-.268h2.677V56h-.952v-7.112h-1.747q-.47 0-.818.19-.346.18-.537.527-.18.346-.179.84 0 .48.179.84.19.346.537.537.347.18.818.18M136.435 56v-.045l2.441-3.54 1.031.057L137.555 56zM127.955 56V50.11h2.845q.47 0 .84.201.369.203.582.56.224.348.224.785 0 .447-.201.795a1.3 1.3 0 0 1-.493.504v.044q.403.158.649.493.247.337.247.795 0 .505-.235.896a1.688 1.688 0 0 1-1.468.818zm.941-5.029v4.167h1.971a.8.8 0 0 0 .582-.247.89.89 0 0 0 .247-.638.83.83 0 0 0-.247-.616.8.8 0 0 0-.582-.246h-2.307v-.796h2.184a.75.75 0 0 0 .549-.224.81.81 0 0 0 .224-.582.8.8 0 0 0-.236-.583.73.73 0 0 0-.548-.235zM118.604 56V50.11h.94v3.393l-.044 1.11h.044l2.991-4.503h.941V56h-.941v-3.394l.045-1.108h-.045L119.544 56zM112.117 56V50.11h.941v3.393l-.045 1.11h.045l2.99-4.503h.941V56h-.941v-3.394l.045-1.108h-.045L113.058 56zM109.959 57.703V56h-4.48V50.11h.94v5.029h2.688v-5.03h.941v5.03h.818v2.565zM101.09 56.18a2.4 2.4 0 0 1-1.064-.225 1.73 1.73 0 0 1-.717-.627 1.8 1.8 0 0 1-.257-.974q0-.594.302-.986.314-.403.818-.605a3 3 0 0 1 1.109-.201q.347 0 .638.033a4.4 4.4 0 0 1 1.109.224v-.65q0-.637-.426-1.007-.426-.381-1.086-.381-.584 0-.963.269-.381.257-.527.773l-.851-.213q.1-.527.426-.896.325-.38.817-.583a2.9 2.9 0 0 1 1.098-.201q1.153 0 1.781.582.638.582.638 1.635V56h-.907v-.773h-.045a2.6 2.6 0 0 1-.414.448q-.258.225-.628.359a2.3 2.3 0 0 1-.851.145m.168-.83q.516 0 .907-.224a1.6 1.6 0 0 0 .628-.615q.234-.404.235-.897a4.5 4.5 0 0 0-.795-.223 4.5 4.5 0 0 0-.784-.068q-.639 0-1.042.247-.392.235-.392.784 0 .447.347.728.359.268.896.268M95.793 56.18q-.582 0-1.109-.191a2.4 2.4 0 0 1-.896-.594 2.14 2.14 0 0 1-.504-.997l.907-.156q.18.615.594.862.426.235 1.008.235.627 0 1.008-.268a.87.87 0 0 0 .38-.728.72.72 0 0 0-.324-.628q-.315-.235-.862-.235h-.952v-.862h.873q.504 0 .795-.247a.82.82 0 0 0 .292-.66.8.8 0 0 0-.359-.684q-.347-.257-.93-.257-.593 0-.963.268-.37.258-.56.785l-.84-.247q.19-.57.538-.93.347-.369.818-.537.47-.18 1.019-.18.683 0 1.187.225.504.213.773.604.28.393.28.93 0 .425-.224.773a1.37 1.37 0 0 1-.616.504v.045q.48.18.75.57.28.393.28.852 0 .537-.291.93-.29.392-.829.605-.526.212-1.243.212M87.169 56V50.11h.94v3.393l-.044 1.11h.045l2.99-4.503h.94V56h-.94v-3.394l.045-1.108H91.1L88.11 56zM80.793 56V50.11h.94V56zm.493-2.542v-.863h3.774v.863zM84.612 56V50.11h.941V56zM76.404 56.18a2.4 2.4 0 0 1-1.064-.225 1.73 1.73 0 0 1-.717-.627 1.8 1.8 0 0 1-.258-.974q0-.594.303-.986.313-.403.817-.605a3 3 0 0 1 1.109-.201q.347 0 .638.033a4.4 4.4 0 0 1 1.11.224v-.65q0-.637-.426-1.007-.426-.381-1.087-.381-.583 0-.963.269-.382.257-.526.773l-.852-.213q.102-.527.426-.896a2.1 2.1 0 0 1 .818-.583 2.9 2.9 0 0 1 1.097-.201q1.154 0 1.781.582.639.582.638 1.635V56h-.907v-.773h-.045q-.156.225-.414.448a2 2 0 0 1-.627.359 2.3 2.3 0 0 1-.851.145m.168-.83q.514 0 .907-.224.404-.223.627-.615.235-.404.235-.897a4.4 4.4 0 0 0-.795-.223 4.5 4.5 0 0 0-.784-.068q-.639 0-1.042.247-.391.235-.392.784 0 .447.348.728.358.268.896.268M70.14 56V50.11h3.516v.862H71.08v5.03zM63.435 58.42v-8.311h.896v.862h.044q.158-.28.426-.515.28-.236.65-.38.38-.147.795-.146.795 0 1.389.392.592.392.918 1.097.325.706.325 1.636t-.336 1.635q-.325.705-.919 1.097-.582.392-1.377.392-.684 0-1.165-.28-.481-.291-.706-.672h-.044l.044.773v2.42zm2.71-3.103q.525 0 .93-.258.402-.257.627-.761.235-.515.235-1.244 0-.738-.235-1.243a1.7 1.7 0 0 0-.627-.761 1.7 1.7 0 0 0-.93-.258q-.527 0-.94.258a1.75 1.75 0 0 0-.64.761q-.234.504-.234 1.243 0 .728.235 1.244.236.504.638.761.414.258.941.258M59.37 56.18q-.864 0-1.501-.393a2.7 2.7 0 0 1-.975-1.108q-.347-.705-.347-1.625 0-.93.347-1.623a2.63 2.63 0 0 1 .974-1.098q.639-.403 1.501-.403.863 0 1.49.403.628.392.963 1.098.347.693.347 1.624 0 .918-.347 1.624-.336.706-.963 1.108-.627.392-1.49.392m0-.863q.547 0 .963-.269.425-.27.66-.773.235-.504.235-1.22 0-.717-.235-1.221a1.77 1.77 0 0 0-.66-.773 1.73 1.73 0 0 0-.964-.269q-.548 0-.974.269-.426.27-.672.773-.235.504-.235 1.22 0 .717.235 1.221.246.504.672.773.425.27.974.269M49.38 56V50.11h3.517v.862H50.32v5.03zM43.004 56V50.11h.94V56zm.493-2.542v-.863h3.774v.863zM46.823 56V50.11h.94V56zM36.518 56V50.11h.94v3.393l-.044 1.11h.044l2.99-4.503h.942V56h-.941v-3.394l.045-1.108h-.045L37.459 56zM32.558 56v-5.477h.941V56zm-1.881-5.029v-.862h4.715v.862zM24.672 56v-5.891h.94v3.393l-.044 1.11h.045l2.99-4.503h.94V56h-.94v-3.394l.045-1.108h-.045L25.613 56zm2.453-7.134q-.538 0-.919-.202a1.37 1.37 0 0 1-.56-.549 1.7 1.7 0 0 1-.19-.806h.806q0 .324.202.605.213.28.66.28.449 0 .64-.28.2-.28.2-.605h.796q0 .448-.19.806-.18.348-.55.549-.357.202-.895.202M20.768 56.18q-.829 0-1.445-.404a2.77 2.77 0 0 1-.94-1.12q-.325-.705-.325-1.59 0-.908.336-1.613.346-.717.952-1.12.615-.403 1.41-.403.852 0 1.434.336.594.336.908.963.313.615.313 1.478 0 .145-.011.291 0 .135-.011.236h-4.76v-.784h3.797a2.1 2.1 0 0 0-.124-.684 1.3 1.3 0 0 0-.313-.526 1.24 1.24 0 0 0-.515-.336 1.9 1.9 0 0 0-.717-.123q-.526 0-.93.269-.391.257-.616.761-.213.504-.213 1.255 0 .717.224 1.22.225.505.628.773.414.258.952.258.705 0 1.064-.291.369-.303.537-.773l.829.224q-.18.717-.795 1.21-.605.492-1.669.492M12.13 56v-8.02h2.957q.672 0 1.243.27.57.257.918.795t.348 1.366q0 .829-.348 1.367a2.2 2.2 0 0 1-.918.806 3 3 0 0 1-1.243.258h-2.42v-.908h2.442q.482 0 .818-.179.347-.18.526-.515a1.7 1.7 0 0 0 .19-.829q0-.493-.19-.829a1.2 1.2 0 0 0-.526-.515q-.336-.18-.818-.18h-2.027V56z"/><defs><linearGradient id="a" x1="22.855" x2="22.855" y1="10.875" y2="35.078" gradientUnits="userSpaceOnUse"><stop stop-color="#fe5e21"/><stop offset="1" stop-color="#f32912"/></linearGradient></defs></svg>