<svg xmlns="http://www.w3.org/2000/svg" style="display: none;">
    <symbol id="icon-instagram" viewBox="0 0 26 26">
        <g clip-path="url(#clip-instagram)">
            <rect width="26" height="26" rx="10" fill="#C4AFAB" />
            <path
                d="M13.0017 5.00024C10.829 5.00024 10.5564 5.00974 9.70302 5.04858C8.85135 5.08758 8.27001 5.22241 7.76134 5.42025C7.23517 5.62458 6.78882 5.89791 6.34416 6.34274C5.89916 6.78742 5.62581 7.23374 5.42082 7.75974C5.22248 8.26858 5.08747 8.85008 5.04914 9.70141C5.01098 10.5547 5.00098 10.8276 5.00098 13.0002C5.00098 15.1729 5.01065 15.4447 5.04931 16.2981C5.08848 17.1497 5.22331 17.7311 5.42098 18.2397C5.62548 18.7659 5.89882 19.2122 6.34365 19.6569C6.78817 20.1019 7.2345 20.3759 7.76033 20.5802C8.26934 20.7781 8.85085 20.9129 9.70236 20.9519C10.5557 20.9907 10.8282 21.0002 13.0007 21.0002C15.1736 21.0002 15.4454 20.9907 16.2988 20.9519C17.1504 20.9129 17.7324 20.7781 18.2414 20.5802C18.7675 20.3759 19.2131 20.1019 19.6576 19.6569C20.1026 19.2122 20.376 18.7659 20.581 18.2399C20.7776 17.7311 20.9126 17.1496 20.9526 16.2982C20.991 15.4449 21.001 15.1729 21.001 13.0002C21.001 10.8276 20.991 10.5549 20.9526 9.70158C20.9126 8.84991 20.7776 8.26858 20.581 7.75992C20.376 7.23374 20.1026 6.78741 19.6576 6.34274C19.2126 5.89774 18.7676 5.62441 18.241 5.42024C17.7309 5.22241 17.1493 5.08758 16.2976 5.04858C15.4442 5.00974 15.1726 5.00024 12.9992 5.00024H13.0017ZM12.284 6.44191C12.4971 6.44158 12.7347 6.44191 13.0017 6.44191C15.1377 6.44191 15.3909 6.44958 16.2344 6.48791C17.0144 6.52358 17.4378 6.65391 17.7198 6.76341C18.0931 6.90841 18.3593 7.08175 18.6391 7.36174C18.9191 7.64175 19.0925 7.90841 19.2378 8.28174C19.3473 8.56341 19.4778 8.98674 19.5133 9.76675C19.5516 10.6101 19.56 10.8634 19.56 12.9984C19.56 15.1334 19.5516 15.3868 19.5133 16.2301C19.4776 17.0101 19.3473 17.4334 19.2378 17.7151C19.0928 18.0884 18.9191 18.3542 18.6391 18.6341C18.3591 18.9141 18.0933 19.0874 17.7198 19.2324C17.4381 19.3424 17.0144 19.4724 16.2344 19.5081C15.3911 19.5464 15.1377 19.5547 13.0017 19.5547C10.8655 19.5547 10.6124 19.5464 9.76902 19.5081C8.98902 19.4721 8.56569 19.3417 8.28351 19.2322C7.91017 19.0872 7.6435 18.9139 7.3635 18.6339C7.0835 18.3539 6.91017 18.0879 6.76483 17.7144C6.65532 17.4327 6.52483 17.0094 6.48933 16.2294C6.45099 15.3861 6.44332 15.1327 6.44332 12.9964C6.44332 10.8601 6.45099 10.6081 6.48933 9.76475C6.525 8.98474 6.65532 8.56141 6.76483 8.27941C6.90983 7.90608 7.0835 7.63941 7.3635 7.35941C7.6435 7.07941 7.91017 6.90608 8.28351 6.76075C8.56552 6.65074 8.98902 6.52075 9.76902 6.48491C10.507 6.45157 10.793 6.44158 12.2841 6.4399L12.284 6.44191ZM17.2721 7.77024C16.7421 7.77024 16.3121 8.19975 16.3121 8.72991C16.3121 9.25991 16.7421 9.68991 17.2721 9.68991C17.8021 9.68991 18.2321 9.25991 18.2321 8.72991C18.2321 8.19991 17.8021 7.76992 17.2721 7.76992L17.2721 7.77024ZM13.0017 8.89191C10.7329 8.89191 8.89335 10.7314 8.89335 13.0002C8.89335 15.2691 10.7329 17.1077 13.0017 17.1077C15.2706 17.1077 17.1094 15.2691 17.1094 13.0002C17.1094 10.7314 15.2704 8.89191 13.0016 8.89191H13.0017ZM13.0017 10.3336C14.4744 10.3336 15.6684 11.5274 15.6684 13.0002C15.6684 14.4729 14.4744 15.6669 13.0017 15.6669C11.5289 15.6669 10.335 14.4729 10.335 13.0002C10.335 11.5274 11.5289 10.3336 13.0017 10.3336Z"
                fill="white" />
        </g>
        <defs>
            <clipPath id="clip-instagram">
                <rect width="26" height="26" fill="white" />
            </clipPath>
        </defs>
    </symbol>

    <symbol id="icon-telegram" viewBox="0 0 26 26">
        <g clip-path="url(#clip-telegram)">
            <path
                d="M13 26C20.1797 26 26 20.1797 26 13C26 5.8203 20.1797 0 13 0C5.8203 0 0 5.8203 0 13C0 20.1797 5.8203 26 13 26Z"
                fill="#C4AFAB" />
            <path fill-rule="evenodd" clip-rule="evenodd"
                d="M5.8846 12.8631C9.67437 11.2119 12.2015 10.1234 13.4659 9.59747C17.0761 8.09585 17.8263 7.835 18.3153 7.82639C18.4228 7.82449 18.6633 7.85114 18.819 7.97753C18.9505 8.08425 18.9867 8.2284 19.0041 8.32958C19.0214 8.43076 19.0429 8.66125 19.0258 8.84135C18.8301 10.897 17.9836 15.8854 17.5529 18.1877C17.3707 19.1619 17.0119 19.4885 16.6645 19.5205C15.9096 19.59 15.3363 19.0216 14.6051 18.5423C13.461 17.7923 12.8146 17.3254 11.704 16.5935C10.4205 15.7477 11.2525 15.2828 11.984 14.5231C12.1754 14.3243 15.5017 11.2988 15.566 11.0243C15.5741 10.99 15.5816 10.862 15.5055 10.7945C15.4295 10.7269 15.3173 10.75 15.2364 10.7684C15.1216 10.7944 13.2938 12.0026 9.75291 14.3928C9.23409 14.749 8.76416 14.9226 8.34311 14.9135C7.87895 14.9035 6.98607 14.6511 6.32232 14.4353C5.50819 14.1707 4.86114 14.0307 4.91748 13.5813C4.94683 13.3472 5.2692 13.1078 5.8846 12.8631Z"
                fill="white" />
        </g>
        <defs>
            <clipPath id="clip-telegram">
                <rect width="26" height="26" fill="white" />
            </clipPath>
        </defs>
    </symbol>

    <symbol id="icon-whatsapp" viewBox="0 0 26 26">
        <g clip-path="url(#clip-whatsapp)">
            <path
                d="M5.86897 23.9687L6.35794 24.2125C8.39561 25.4312 10.6776 26 12.9597 26C20.1319 26 26 20.15 26 13C26 9.58754 24.6144 6.25627 22.1694 3.81873C19.7243 1.3812 16.4642 0 12.9597 0C5.78753 0 -0.0807138 5.84999 0.000839892 13.0813C0.000839892 15.5187 0.734356 17.8751 1.95684 19.9062L2.28283 20.3938L0.9789 25.1876L5.86897 23.9687Z"
                fill="#C4AFAB" />
            <path
                d="M20.0319 16.2001L19.1582 15.8077C19.1582 15.8077 17.8874 15.2583 17.0931 14.8659C17.0136 14.8659 16.9342 14.7873 16.8547 14.7873C16.6164 14.7873 16.4576 14.8659 16.2987 14.9444C16.2987 14.9444 16.2193 15.0228 15.1073 16.2785C15.0278 16.4355 14.869 16.514 14.7101 16.514H14.6306C14.5513 16.514 14.3924 16.4355 14.3129 16.3571L13.9158 16.2001C13.042 15.8077 12.2478 15.3367 11.6123 14.7089C11.4534 14.5519 11.2151 14.395 11.0563 14.238C10.5002 13.6887 9.9442 13.0607 9.54714 12.3544L9.46765 12.1974C9.38829 12.1189 9.38829 12.0405 9.3088 11.8835C9.3088 11.7266 9.3088 11.5696 9.38829 11.4911C9.38829 11.4911 9.70598 11.0987 9.9442 10.8633C10.1032 10.7062 10.1825 10.4709 10.3414 10.3139C10.5002 10.0784 10.5797 9.76452 10.5002 9.52904C10.4209 9.13661 9.46765 7.01759 9.22944 6.54673C9.07047 6.31125 8.91174 6.23283 8.67341 6.1543H7.79969C7.64072 6.1543 7.48199 6.23283 7.32302 6.23283L7.24354 6.31125C7.08469 6.38978 6.92585 6.54673 6.767 6.62515C6.60815 6.78222 6.52867 6.93906 6.36982 7.09612C5.81379 7.80246 5.49609 8.66575 5.49609 9.52904C5.49609 10.1568 5.65494 10.7848 5.89327 11.3342L5.97275 11.5696C6.68763 13.0607 7.64072 14.395 8.91174 15.5722L9.22944 15.8861C9.46765 16.1216 9.70598 16.2785 9.86483 16.5139C11.5329 17.9267 13.4392 18.9469 15.5838 19.4963C15.8222 19.5747 16.1399 19.5747 16.3782 19.6533H17.1724C17.5696 19.6533 18.0462 19.4963 18.364 19.3394C18.6022 19.1824 18.761 19.1824 18.9199 19.0255L19.0789 18.8684C19.2377 18.7115 19.3966 18.633 19.5554 18.4761C19.7142 18.3191 19.8731 18.1622 19.9526 18.0051C20.1114 17.6912 20.1908 17.2988 20.2703 16.9064V16.3571C20.2703 16.3571 20.1908 16.2785 20.0319 16.2001Z"
                fill="white" />
        </g>
        <defs>
            <clipPath id="clip-whatsapp">
                <rect width="26" height="26" fill="white" />
            </clipPath>
        </defs>
    </symbol>
    <symbol id="icon-location" viewBox="0 0 15 16">
        <path fill-rule="evenodd" clip-rule="evenodd"
            d="M12.3796 2.49938C13.6033 3.69407 14.303 5.30669 14.331 6.9961C14.359 8.6855 13.7135 10.3193 12.53 11.5521C12.3797 11.704 12.3796 11.704 12.3796 11.704L9.23687 14.7715C8.83813 15.1606 8.30306 15.387 7.73965 15.4051C7.17623 15.4233 6.62675 15.2318 6.20265 14.8691C6.096 14.7715 6.0956 14.7715 6.0956 14.7715L2.95289 11.7033C1.70283 10.4828 1 8.82776 1 7.1017C1 5.37565 1.70283 3.71989 2.95289 2.49938C4.20297 1.27888 5.89801 0.593506 7.66587 0.593506C9.43373 0.593506 11.1295 1.27888 12.3796 2.49938ZM7.66587 4.93182C7.37408 4.93182 7.08557 4.98843 6.816 5.09745C6.54643 5.20648 6.30119 5.36615 6.09488 5.56759C5.88855 5.76904 5.72483 6.00816 5.61316 6.27136C5.5015 6.53456 5.44391 6.81683 5.44391 7.1017C5.44391 7.38658 5.5015 7.66884 5.61316 7.93204C5.72483 8.19524 5.88855 8.43436 6.09488 8.63581C6.30119 8.83725 6.54643 8.99692 6.816 9.10595C7.08557 9.21497 7.37408 9.27086 7.66587 9.27086C8.25515 9.27086 8.82019 9.04263 9.23687 8.63581C9.65356 8.22898 9.88783 7.67705 9.88783 7.1017C9.88783 6.52636 9.65356 5.97442 9.23687 5.56759C8.82019 5.16077 8.25515 4.93182 7.66587 4.93182Z"
            fill="currentColor" />
    </symbol>
    <symbol id="telegrambot" viewBox="0 0 18 18">
        <path fill-rule="evenodd" clip-rule="evenodd"
            d="M1.23741 8.48116C6.06923 6.12239 9.29121 4.56734 10.9033 3.81602C15.5063 1.67084 16.4627 1.2982 17.0861 1.2859C17.2232 1.28319 17.5298 1.32127 17.7284 1.50182C17.8961 1.65427 17.9422 1.86021 17.9643 2.00475C17.8961 2.1493 18.0139 2.47857 17.992 2.73585C17.7426 5.67243 16.6633 12.7987 16.1142 16.0878C15.8818 17.4795 15.4244 17.9461 14.9815 17.9918C14.0189 18.091 13.288 17.279 12.3558 16.5943C10.897 15.5229 10.0729 14.8559 8.65691 13.8103C7.02048 12.602 8.08131 11.9379 9.0139 10.8526C9.25797 10.5686 13.4988 6.24644 13.5809 5.85435C13.5912 5.80531 13.6007 5.62253 13.5038 5.52601C13.4069 5.42949 13.2639 5.4625 13.1606 5.48875C13.0143 5.52596 10.6839 7.25185 6.16938 10.6664C5.5079 11.1754 4.90875 11.4233 4.37193 11.4104C3.78013 11.396 2.64175 11.0354 1.79548 10.7272C0.757494 10.3491 -0.0674757 10.1493 0.00436067 9.5072C0.0417775 9.17278 0.452793 8.83076 1.23741 8.48116Z"
            fill="currentColor" />
    </symbol>
    <symbol id="calendar" viewBox="0 0 18 18">
        <path
            d="M2 6H16M5 1V3M13 1V3M17 4.45455L17 14.5455C17 15.9011 15.9011 17 14.5455 17H3.45455C2.09894 17 1 15.9011 1 14.5455V4.45455C1 3.09894 2.09894 2 3.45455 2H14.5455C15.9011 2 17 3.09894 17 4.45455Z"
            stroke="currentColor" stroke-width="2" stroke-linecap="round" stroke-linejoin="round"
            fill="none" />
        <circle cx="5" cy="10" r="1" fill="currentColor" />
        <circle cx="5" cy="13" r="1" fill="currentColor" />
        <circle cx="9" cy="10" r="1" fill="currentColor" />
        <circle cx="9" cy="13" r="1" fill="currentColor" />
        <circle cx="13" cy="10" r="1" fill="currentColor" />
        <circle cx="13" cy="13" r="1" fill="currentColor" />
    </symbol>
    <symbol id="arrow-right" viewBox="0 0 14 14">
        <path d="M7 1L12 7L7 13" stroke="currentColor" stroke-width="2" fill="none" />
        <path d="M1 7H12" stroke="currentColor" stroke-width="2" fill="none" />
    </symbol>
    <symbol id="arrow-left" viewBox="0 0 14 14">
        <path d="M7 1L2 7L7 13" stroke="currentColor" stroke-width="2" fill="none" />
        <path d="M13 7H2" stroke="currentColor" stroke-width="2" fill="none" />
    </symbol>
    <symbol id="small-arrow-down" viewBox="0 0 12 12">
        <path d="M2 4L6 8L10 4" stroke="currentColor" stroke-linecap="round" stroke-linejoin="round"
            fill="none" />
    </symbol>
    <symbol id="logo-google-maps" viewBox="0 0 68 20">
        <g clip-path="url(#clip0_2755_9362)">
            <path fill-rule="evenodd" clip-rule="evenodd"
                d="M50.1387 9.16504C51.0024 9.16514 51.6538 9.50002 52.1299 10.0127V9.38672H53.6787V16.0244C53.6787 18.6366 52.1739 19.8807 50.1992 19.8809C48.3933 19.8809 47.3789 18.7692 46.875 17.7041L48.2949 17.1104C48.4918 17.5865 49.0578 18.4267 50.1865 18.4268C51.359 18.4268 52.1328 17.6624 52.1328 16.3877V15.6592C51.7188 16.1394 51.1594 16.5576 50.1064 16.5576C48.4035 16.5576 46.5939 15.0829 46.5938 12.8594C46.5938 10.907 48.1556 9.16699 50.1416 9.16699L50.1387 9.16504ZM50.2852 10.6152C49.2422 10.6152 48.2197 11.4583 48.2197 12.8809C48.2199 14.2463 49.2051 15.1055 50.2637 15.1055C51.2612 15.1053 52.2587 14.3104 52.2588 12.8672C52.2588 11.4473 51.2592 10.6153 50.2852 10.6152Z"
                fill="currentColor" />
            <path fill-rule="evenodd" clip-rule="evenodd"
                d="M6.58594 0.804688C7.72128 0.804688 8.58063 1.09854 8.60352 1.10645L8.60156 1.10742L8.60742 1.10547C10.2444 1.6333 11.6456 2.74102 12.4932 4.375L12.4912 4.37695C12.5078 4.40535 13.2401 5.668 13.2402 7.47949C13.2402 9.43436 12.4847 10.8358 12.4814 10.8418C11.8639 12.1185 10.4919 13.7364 10.2793 14.0146C9.4954 14.9962 8.69769 16.0177 8.05566 17.167C7.72849 17.7622 7.52111 18.3924 7.25684 19.2178C7.12955 19.597 6.9647 19.8428 6.60156 19.8428C6.26839 19.8428 6.11384 19.6978 5.94238 19.2148C5.66281 18.341 5.5026 17.8494 5.12012 17.124C4.672 16.3526 4.17085 15.613 3.62012 14.9111V14.9082C2.6921 13.6558 1.32283 12.2285 0.612305 10.6055L0.611328 10.6064C0.611328 10.6064 -0.0429688 9.32427 -0.0429688 7.46777C-0.04289 5.71324 0.639426 4.17957 1.51465 3.17969L1.70801 2.95996C2.71144 1.8637 4.36233 0.80473 6.58594 0.804688ZM6.60449 4.90332C5.37371 4.90332 4.66109 5.79119 4.64648 5.80957L4.64355 5.8125L4.64453 5.81348C4.63891 5.81992 4.06152 6.48409 4.06152 7.44824C4.06167 8.86098 5.19559 9.98145 6.59863 9.98145C7.66672 9.98137 8.32639 9.32651 8.50293 9.12793L8.55273 9.07129L8.55371 9.06934C8.55371 9.06934 9.13672 8.39159 9.13672 7.42871C9.13645 5.98316 7.91948 4.90335 6.60449 4.90332Z"
                fill="currentColor" />
            <path fill-rule="evenodd" clip-rule="evenodd"
                d="M60.6006 9.16699C62.0747 9.16709 63.1908 10.1531 63.6699 11.333L63.9277 11.9316L58.9727 13.9912C59.2684 14.5422 59.7464 15.1113 60.7852 15.1113C61.7091 15.1112 62.2634 14.6079 62.5947 14.0938L63.8682 14.9434C63.2961 15.7097 62.3358 16.5645 60.7725 16.5645C58.8992 16.5644 57.1466 15.1843 57.1465 12.8574C57.1465 10.6573 58.7195 9.16705 60.5928 9.16699H60.6006ZM60.6572 10.5879C59.5875 10.5879 58.5739 11.6892 58.7158 12.7598L62.0244 11.377C61.8173 10.9474 61.3323 10.5879 60.6572 10.5879Z"
                fill="currentColor" />
            <path fill-rule="evenodd" clip-rule="evenodd"
                d="M34.1885 9.16699C35.967 9.16699 37.8964 10.4269 37.8965 12.874C37.8965 15.0093 36.2388 16.5564 34.2148 16.5566C31.9755 16.5566 30.4709 14.834 30.4707 12.832C30.4707 10.8591 32.0217 9.16699 34.1855 9.16699H34.1885ZM34.2061 10.6191C33.0108 10.6192 32.0919 11.5751 32.0918 12.8545C32.0918 14.1625 33.022 15.1074 34.2012 15.1074C35.2744 15.1074 36.2791 14.2217 36.2793 12.8652C36.2793 11.4793 35.2704 10.6191 34.2061 10.6191Z"
                fill="currentColor" />
            <path fill-rule="evenodd" clip-rule="evenodd"
                d="M42.2285 9.16699C44.0071 9.16699 45.9364 10.4269 45.9365 12.874C45.9365 15.0093 44.2789 16.5564 42.2549 16.5566C40.0156 16.5566 38.511 14.834 38.5107 12.832C38.5107 10.8591 40.0617 9.16699 42.2256 9.16699H42.2285ZM42.2461 10.6191C41.0509 10.6192 40.132 11.5751 40.1318 12.8545C40.1318 14.1625 41.062 15.1074 42.2412 15.1074C43.3144 15.1074 44.3192 14.2217 44.3193 12.8652C44.3193 11.4793 43.3104 10.6191 42.2461 10.6191Z"
                fill="currentColor" />
            <path
                d="M24.541 5.04785C27.0906 5.048 28.4958 6.59471 28.5117 6.6123L27.416 7.74707C27.416 7.74707 26.3712 6.61523 24.5967 6.61523C22.2974 6.6153 20.4639 8.44003 20.4639 10.8086C20.4565 11.3546 20.5583 11.897 20.7627 12.4033C20.9671 12.9095 21.27 13.3701 21.6543 13.7578C22.0387 14.1456 22.4965 14.4532 23.001 14.6621C23.5055 14.871 24.0467 14.9771 24.5928 14.9746C26.316 14.9746 28.1416 14.0385 28.3262 11.8447H24.583V10.2803H29.8594C29.8594 10.2803 29.9551 10.661 29.9551 11.3184C29.955 14.436 27.7013 16.5439 24.624 16.5439C21.1252 16.5439 18.748 13.6983 18.748 10.7812C18.7483 7.80406 21.2756 5.04785 24.541 5.04785Z"
                fill="currentColor" />
            <path d="M56.4062 5.45117V16.3447H54.7793V5.45117H56.4062Z" fill="#767676" />
        </g>
    </symbol>
    <symbol id="logo-yandex-maps" viewBox="0 0 64 20">
        <g clip-path="url(#clip-logo-yandex-maps)">
            <g clip-path="url(#clip1_2400_8941)">
                <path
                    d="M7.29706 0.810547C5.85393 0.811308 4.44339 1.23974 3.24362 2.04172C2.04385 2.8437 1.10867 3.98326 0.556194 5.31645C0.00372097 6.64964 -0.141256 8.11665 0.139575 9.5322C0.420406 10.9477 1.11445 12.2483 2.13403 13.2696C3.45601 14.5916 6.56713 16.504 6.75123 18.5129C6.77881 18.813 6.99698 19.0587 7.29706 19.0587C7.59714 19.0587 7.81612 18.813 7.84288 18.5129C8.02699 16.504 11.1357 14.5948 12.4568 13.2737C13.4776 12.2528 14.1728 10.9521 14.4545 9.53621C14.7363 8.12028 14.5919 6.65261 14.0397 5.31872C13.4874 3.98483 12.5521 2.8446 11.352 2.04218C10.1518 1.23975 8.74074 0.811148 7.29706 0.810547ZM7.29706 10.607C6.96913 10.607 6.6444 10.5424 6.34143 10.4169C6.03846 10.2914 5.76318 10.1075 5.53129 9.87559C5.29941 9.64371 5.11547 9.36842 4.98998 9.06545C4.86448 8.76248 4.79989 8.43776 4.79989 8.10983C4.79989 7.7819 4.86448 7.45717 4.98998 7.1542C5.11547 6.85123 5.29941 6.57595 5.53129 6.34407C5.76318 6.11218 6.03846 5.92824 6.34143 5.80275C6.6444 5.67725 6.96913 5.61266 7.29706 5.61266C7.95935 5.61266 8.59451 5.87576 9.06282 6.34407C9.53113 6.81237 9.79422 7.44754 9.79422 8.10983C9.79422 8.77212 9.53113 9.40728 9.06282 9.87559C8.59451 10.3439 7.95935 10.607 7.29706 10.607Z"
                    fill="currentColor" />
            </g>
            <g clip-path="url(#clip2_2400_8941)">
                <path
                    d="M43.9928 15.6325C42.1448 15.6325 40.8578 14.1145 40.8578 11.3755C40.8578 8.6035 42.1778 7.003 44.0753 7.003C44.9333 7.003 45.6593 7.399 46.1543 8.1415V4H48.1178V15.4675H46.3028L46.2038 14.395C45.6758 15.2035 44.9168 15.6325 43.9928 15.6325ZM56.0543 14.9065C55.4768 15.3025 54.5528 15.6325 53.2988 15.6325C50.7908 15.6325 49.3718 14.23 49.3718 11.3425C49.3718 8.8345 50.5103 7.003 52.9028 7.003C54.8663 7.003 56.1368 8.092 56.1368 10.9795V12.019H51.4013C51.4838 13.405 52.0283 14.0815 53.4638 14.0815C54.4208 14.0815 55.4438 13.7185 56.0543 13.306V14.9065ZM31.3538 9.808V13.438C31.3538 14.1145 31.3868 14.791 31.4528 15.4675H29.5388C29.4728 15.3025 29.4068 15.022 29.3903 14.8075H29.3078C28.9283 15.2035 28.4333 15.583 27.2783 15.583C25.7603 15.583 24.7373 14.659 24.7373 13.0585C24.7373 11.326 26.0738 10.3525 29.0768 10.3525H29.3903V9.8245C29.3903 8.9335 28.9613 8.6035 28.0208 8.6035C26.9153 8.6035 25.9583 9.1975 25.3313 9.709V8.0095C25.9253 7.5805 26.9648 7.036 28.2518 7.036C30.3308 7.036 31.3538 7.795 31.3538 9.808ZM34.9178 9.511V15.4675H32.9543V7.168H34.8683L34.9178 7.861H35.0168C35.4128 7.465 36.1058 7.036 37.2773 7.036C38.8778 7.036 39.5378 7.762 39.5378 9.412V15.4675H37.5743V9.61C37.5743 8.983 37.2608 8.686 36.5678 8.686C35.8583 8.686 35.2808 9.0655 34.9178 9.511ZM62.0933 15.4675L60.3278 12.6625L58.6613 15.4675H56.6648L59.2718 11.1445L56.7638 7.168H58.9748L60.5588 9.676L61.9778 7.168H63.9413L61.5983 11.194L64.3043 15.4675H62.0933ZM44.5703 8.554C43.4483 8.554 42.8873 9.412 42.8873 11.3755C42.8873 13.2565 43.4153 14.0815 44.4878 14.0815C45.5933 14.0815 46.1543 13.24 46.1543 11.3095C46.1543 9.3955 45.6263 8.554 44.5703 8.554ZM52.8698 8.554C51.9293 8.554 51.4508 9.247 51.4013 10.567H54.1403V10.402C54.1403 9.3625 53.8433 8.554 52.8698 8.554ZM29.3903 13.4875V11.656H29.1098C27.4268 11.656 26.7503 11.986 26.7503 12.943C26.7503 13.669 27.1628 14.1475 27.9878 14.1475C28.6808 14.1475 29.1428 13.8505 29.3903 13.4875Z"
                    fill="currentColor" />
                <path
                    d="M21.8332 15.4675H19.8367V12.184L16.0747 4H18.1537L21.0907 10.402C21.6517 11.623 21.8332 12.052 21.8332 13.5205V15.4675ZM23.1367 9.544H21.1072L23.5492 4H25.5787L23.1367 9.544Z"
                    fill="currentColor" />
            </g>
        </g>
    </symbol>
    <symbol id="logo-2gis-maps" viewBox="0 0 56 20">
        <g clip-path="url(#clip0_2400_8943)">
            <path fill-rule="evenodd" clip-rule="evenodd"
                d="M50.5875 3.79883C53.0691 3.79886 54.8548 5.08363 55.1724 7.52832H52.6607C52.4942 6.61945 51.7677 5.91407 50.5572 5.91406C49.5132 5.91406 48.8932 6.43112 48.8932 7.27734C48.8932 8.48394 50.103 8.64113 51.2076 8.81348C52.8267 9.06423 55.1422 9.54964 55.1422 12.2451C55.1422 14.7525 53.1295 15.9121 50.6783 15.9121C48.0303 15.9121 46.23 14.5329 46.0787 11.9629H48.5601C48.772 13.1538 49.6192 13.8125 50.8902 13.8125C51.9189 13.8125 52.6449 13.3735 52.6451 12.4805C52.6451 11.1642 51.1924 11.1327 49.7096 10.835C48.5595 10.5998 46.3961 10.0192 46.3961 7.41797C46.3963 5.13024 48.0759 3.79883 50.5875 3.79883ZM35.441 3.95508C38.0887 3.95524 40.3274 5.47487 40.7662 8.12305H38.2096C37.8161 6.94785 36.7875 6.2892 35.4107 6.28906C33.1563 6.28906 32.1872 8.09152 32.1871 9.8623C32.1871 11.6175 33.2163 13.3887 35.4254 13.3887C36.6813 13.3887 37.7712 12.8084 38.2555 11.5859H35.1529V9.64355H40.7662V10.5674C40.7662 13.7329 38.4214 15.7549 35.4254 15.7549C32.384 15.7549 29.7213 13.5763 29.7213 9.89355C29.7214 6.25803 32.1728 3.95508 35.441 3.95508ZM44.7008 15.5527H42.3248V4.19141H44.7008V15.5527ZM24.2896 3.95508C26.8468 3.95508 28.6021 5.50639 28.6021 7.9668C28.602 9.9724 27.4367 11.1477 25.3941 12.0879C24.4403 12.5208 23.6357 12.8857 22.565 13.2217C22.5546 13.2249 22.5338 13.2314 22.5338 13.2314H28.8287V15.5508H19.6598V12.1035C20.9761 11.6334 22.2626 11.101 24.0631 10.2705C25.3794 9.65935 26.0904 9.09465 26.0904 8.0918C26.0904 7.0889 25.3791 6.21094 24.1685 6.21094C22.7765 6.21095 21.9898 7.38686 22.0201 8.67188H19.5689C19.5538 5.72571 21.566 3.95508 24.2896 3.95508Z"
                fill="currentColor" />
            <path
                d="M13.1228 11.5545C10.036 11.5702 9.53668 13.4977 9.37027 15.1275L9.29463 15.8484H8.6742L8.59855 15.1275C8.43214 13.4977 7.91769 11.5702 4.93681 11.5545C4.4375 10.4888 4.22566 9.62693 4.22566 8.65533C4.22566 6.22635 6.14733 3.95398 8.99194 3.95398C11.8366 3.95398 13.728 6.2106 13.728 8.67107C13.728 9.62693 13.6372 10.4888 13.1228 11.5545ZM8.96174 1.00781C4.27109 1.00781 0.427734 4.98831 0.427734 9.86194C0.427734 14.7514 4.27109 18.7318 8.96174 18.7318C13.6977 18.7318 17.526 14.7514 17.526 9.86194C17.526 4.98832 13.6977 1.00781 8.96174 1.00781Z"
                fill="currentColor" />
        </g>
    </symbol>
    <symbol id="icon-footer-instagram" viewBox="0 0 20 20">
        <path
            d="M10.0068 0.00488281C7.29094 0.00488281 6.9501 0.0167457 5.88342 0.0652549C4.81883 0.113967 4.09215 0.282388 3.45631 0.529508C2.7986 0.784731 2.24067 1.12615 1.68484 1.68178C1.12859 2.23721 0.786907 2.79471 0.530658 3.45173C0.282734 4.08731 0.113979 4.81365 0.066069 5.87704C0.0183628 6.94292 0.00585938 7.28372 0.00585938 9.99756C0.00585938 12.7114 0.017946 13.051 0.0662722 14.1168C0.115239 15.1806 0.283781 15.9068 0.530861 16.5421C0.78649 17.1994 1.12816 17.7569 1.68421 18.3123C2.23985 18.8681 2.79776 19.2104 3.45506 19.4656C4.09131 19.7127 4.81821 19.8812 5.88258 19.9299C6.94927 19.9784 7.28989 19.9902 10.0055 19.9902C12.7216 19.9902 13.0614 19.9784 14.1281 19.9299C15.1927 19.8812 15.9202 19.7127 16.5564 19.4656C17.214 19.2104 17.771 18.8681 18.3267 18.3123C18.8829 17.7569 19.2246 17.1994 19.4809 16.5424C19.7267 15.9068 19.8954 15.1804 19.9454 14.117C19.9934 13.0512 20.0059 12.7114 20.0059 9.99756C20.0059 7.28371 19.9934 6.94314 19.9454 5.87725C19.8954 4.81344 19.7267 4.08731 19.4809 3.45195C19.2246 2.79471 18.8829 2.2372 18.3267 1.68178C17.7704 1.12593 17.2142 0.784518 16.5558 0.529498C15.9183 0.282388 15.1912 0.113967 14.1266 0.0652549C13.06 0.0167457 12.7204 0.00488281 10.0037 0.00488281H10.0068ZM9.1097 1.80565C9.37596 1.80523 9.67305 1.80565 10.0068 1.80565C12.6768 1.80565 12.9933 1.81523 14.0477 1.86311C15.0227 1.90766 15.5519 2.07045 15.9044 2.20722C16.371 2.38834 16.7037 2.60485 17.0535 2.95459C17.4035 3.30434 17.6202 3.63743 17.8019 4.10375C17.9388 4.45558 18.1019 4.98436 18.1463 5.95865C18.1942 7.01204 18.2046 7.32848 18.2046 9.99528C18.2046 12.6621 18.1942 12.9785 18.1463 14.0319C18.1017 15.0062 17.9388 15.535 17.8019 15.8868C17.6206 16.3531 17.4035 16.6852 17.0535 17.0347C16.7035 17.3844 16.3712 17.6009 15.9044 17.7821C15.5523 17.9195 15.0227 18.0818 14.0477 18.1264C12.9935 18.1743 12.6768 18.1847 10.0068 18.1847C7.33656 18.1847 7.0201 18.1743 5.96592 18.1264C4.99092 18.0814 4.46175 17.9186 4.10903 17.7819C3.64236 17.6007 3.30901 17.3842 2.95902 17.0345C2.60901 16.6848 2.39235 16.3525 2.21067 15.886C2.07379 15.5341 1.91067 15.0053 1.8663 14.0311C1.81838 12.9777 1.80879 12.6612 1.80879 9.99277C1.80879 7.32432 1.81838 7.00954 1.8663 5.95615C1.91088 4.98186 2.07379 4.45308 2.21067 4.10084C2.39192 3.63452 2.60901 3.30143 2.95902 2.95169C3.30901 2.60194 3.64236 2.38543 4.10903 2.2039C4.46153 2.0665 4.99092 1.90412 5.96592 1.85935C6.88843 1.81772 7.24594 1.80523 9.10971 1.80314L9.1097 1.80565ZM15.3448 3.46485C14.6823 3.46485 14.1447 4.00133 14.1447 4.66355C14.1447 5.32557 14.6823 5.86268 15.3448 5.86268C16.0073 5.86268 16.5448 5.32557 16.5448 4.66355C16.5448 4.00154 16.0073 3.46444 15.3448 3.46444L15.3448 3.46485ZM10.0068 4.8659C7.17072 4.8659 4.87133 7.1636 4.87133 9.99756C4.87133 12.8315 7.17072 15.1282 10.0068 15.1282C12.8429 15.1282 15.1414 12.8315 15.1414 9.99756C15.1414 7.1636 12.8427 4.8659 10.0066 4.8659H10.0068ZM10.0068 6.66667C11.8476 6.66667 13.3402 8.15787 13.3402 9.99756C13.3402 11.8371 11.8476 13.3285 10.0068 13.3285C8.16574 13.3285 6.67343 11.8371 6.67343 9.99756C6.67343 8.15787 8.16574 6.66667 10.0068 6.66667Z"
            fill="currentColor" />
    </symbol>
    <symbol id="icon-footer-telegram" viewBox="0 0 20 20">
        <path fill-rule="evenodd" clip-rule="evenodd"
            d="M1.21317 9.82917C5.95038 7.76525 9.10926 6.40458 10.6898 5.74717C15.2026 3.87014 16.1403 3.54408 16.7515 3.53332C16.8859 3.53095 17.1865 3.56426 17.3812 3.72225C17.5456 3.85564 17.5908 4.03584 17.6125 4.16232C17.6341 4.28879 17.6611 4.5769 17.6397 4.80203C17.3951 7.37153 16.3369 13.6071 15.7986 16.485C15.5708 17.7027 15.1223 18.111 14.6881 18.151C13.7444 18.2378 13.0278 17.5273 12.1138 16.9282C10.6836 15.9907 9.87565 15.4071 8.48738 14.4922C6.88299 13.4349 7.92305 12.8538 8.83738 11.9042C9.07667 11.6556 13.2345 7.87379 13.315 7.53071C13.325 7.48781 13.3344 7.32787 13.2394 7.24342C13.1443 7.15896 13.0041 7.18784 12.9029 7.21081C12.7595 7.24337 10.4747 8.75353 6.04856 11.7413C5.40003 12.1866 4.81262 12.4036 4.28631 12.3922C3.7061 12.3797 2.59001 12.0642 1.76032 11.7945C0.74266 11.4637 -0.0661543 11.2888 0.00427527 10.727C0.0409593 10.4343 0.443925 10.1351 1.21317 9.82917Z"
            fill="currentColor" />
    </symbol>
    <symbol id="icon-footer-whatsapp" viewBox="0 0 20 20">
        <path
            d="M17.0959 2.94277C15.233 1.03545 12.6577 0 10.0276 0C4.4388 0 -0.0542542 4.52313 0.000495085 10.0272C0.000495085 11.7711 0.493631 13.4605 1.31558 14.9863L0.067765 19.9703L5.20584 18.801C6.68525 19.6185 8.32898 20 9.97287 20C15.5069 20 20 15.4768 20 9.97281C20 7.30246 18.9588 4.79563 17.0959 2.94277ZM10.0276 18.3107C8.54821 18.3107 7.06881 17.9293 5.80855 17.1663L5.47982 17.0028L2.30185 17.8202L3.12372 14.714L2.90456 14.387C0.493631 10.5178 1.64431 5.39507 5.5894 2.99722C9.53449 0.599444 14.6303 1.74388 17.0412 5.66757C19.452 9.59126 18.3014 14.6594 14.3563 17.0572C13.096 17.8746 11.5619 18.3107 10.0276 18.3107ZM14.8494 12.2617L14.2467 11.9892C14.2467 11.9892 13.3701 11.6077 12.8221 11.3352C12.7673 11.3352 12.7125 11.2807 12.6577 11.2807C12.4933 11.2807 12.3837 11.3352 12.2741 11.3897C12.2741 11.3897 12.2194 11.4442 11.4523 12.3161C11.3975 12.4251 11.2879 12.4796 11.1783 12.4796H11.1235C11.0687 12.4796 10.9591 12.4251 10.9043 12.3707L10.6303 12.2617C10.0276 11.9892 9.47974 11.6622 9.04135 11.2262C8.93177 11.1172 8.76737 11.0083 8.65779 10.8993C8.27423 10.5178 7.89067 10.0818 7.61677 9.59133L7.56194 9.48235C7.50719 9.42782 7.50719 9.37337 7.45236 9.26439C7.45236 9.1554 7.45236 9.04642 7.50719 8.99189C7.50719 8.99189 7.72635 8.71939 7.89067 8.55596C8.00033 8.4469 8.05508 8.28346 8.16465 8.17448C8.27423 8.01097 8.32906 7.793 8.27423 7.62949C8.21948 7.35699 7.56194 5.88561 7.39762 5.55866C7.28796 5.39515 7.17846 5.3407 7.01406 5.28617H6.41134C6.30169 5.28617 6.19219 5.3407 6.08253 5.3407L6.02771 5.39515C5.91813 5.44968 5.80855 5.55866 5.69897 5.61311C5.5894 5.72218 5.53457 5.83108 5.42499 5.94014C5.04143 6.4306 4.82228 7.03005 4.82228 7.62949C4.82228 8.06542 4.93186 8.50143 5.09626 8.88291L5.15109 9.04642C5.64423 10.0818 6.30169 11.0083 7.17846 11.8257L7.39762 12.0436C7.56194 12.2072 7.72635 12.3161 7.83592 12.4796C8.9866 13.4606 10.3016 14.169 11.781 14.5505C11.9454 14.6049 12.1646 14.6049 12.329 14.6595H12.8769C13.1508 14.6595 13.4796 14.5505 13.6988 14.4415C13.8631 14.3325 13.9727 14.3325 14.0823 14.2235L14.1919 14.1145C14.3015 14.0055 14.4111 13.951 14.5207 13.842C14.6302 13.7331 14.7398 13.6241 14.7947 13.515C14.9042 13.2971 14.959 13.0246 15.0138 12.7521V12.3707C15.0138 12.3707 14.959 12.3161 14.8494 12.2617Z"
            fill="currentColor" />
    </symbol>

    <symbol id="icon-footer-facebook" viewBox="0 0 20 20">
        <path
            d="M10 0C15.5228 0 20 4.47722 20 10C20 15.1121 16.1635 19.3282 11.2119 19.9277V13.0557H13.916L14.4756 10H11.207V8.91895C11.2071 7.30306 11.8396 6.6836 13.4795 6.68359C13.9873 6.68359 14.3996 6.69486 14.6357 6.71875V3.95117C14.1875 3.82731 13.0962 3.70318 12.4639 3.70312C9.12387 3.70312 7.58301 5.27971 7.58301 8.68359V10H5.51953V13.0557H7.58301V19.7051C3.2277 18.624 0 14.6894 0 10C1.03087e-06 4.47722 4.47722 0 10 0Z"
            fill="currentColor" />
    </symbol>
</svg>