<svg width="24" height="24" viewBox="0 0 24 24" fill="none" xmlns="http://www.w3.org/2000/svg">
<g clip-path="url(#clip0_2617_9521)">
<rect width="24" height="24" fill="white"/>
<g clip-path="url(#clip1_2617_9521)">
<path d="M-4.49902 1H28.501V23.0003H-4.49902V1Z" fill="white"/>
<path d="M14.0635 1H9.93848V9.93747H-4.49902V14.0625H9.93848V22.9999H14.0635V14.0625H28.501V9.93747H14.0635V1Z" fill="#D80027"/>
<path d="M20.8797 15.8262L28.499 20.0592V15.8262H20.8797ZM15.5859 15.8262L28.499 23.0001V20.9715L19.2375 15.8262H15.5859ZM25.0594 23.0001L15.5859 17.7366V23.0001H25.0594Z" fill="#0052B4"/>
<path d="M15.5859 15.8262L28.499 23.0001V20.9715L19.2375 15.8262H15.5859Z" fill="white"/>
<path d="M15.5859 15.8262L28.499 23.0001V20.9715L19.2375 15.8262H15.5859Z" fill="#D80027"/>
<path d="M1.32471 15.8262L-4.49805 19.0611V15.8262H1.32471ZM8.41501 16.7384V23.0001H-2.85507L8.41501 16.7384Z" fill="#0052B4"/>
<path d="M4.76244 15.8262L-4.49902 20.9715V23.0001L8.41403 15.8262H4.76244Z" fill="#D80027"/>
<path d="M3.1203 8.1739L-4.49902 3.94087V8.1739H3.1203ZM8.41403 8.1739L-4.49902 1V3.0286L4.76244 8.1739H8.41403ZM-1.05942 1L8.41403 6.26351V1H-1.05942Z" fill="#0052B4"/>
<path d="M8.41403 8.1739L-4.49902 1V3.0286L4.76244 8.1739H8.41403Z" fill="white"/>
<path d="M8.41403 8.1739L-4.49902 1V3.0286L4.76244 8.1739H8.41403Z" fill="#D80027"/>
<path d="M22.6762 8.17396L28.499 4.93906V8.17396H22.6762ZM15.5859 7.26169V1H26.856L15.5859 7.26169Z" fill="#0052B4"/>
<path d="M19.2375 8.1739L28.499 3.0286V1L15.5859 8.1739H19.2375Z" fill="#D80027"/>
</g>
</g>
<defs>
<clipPath id="clip0_2617_9521">
<rect width="24" height="24" fill="white"/>
</clipPath>
<clipPath id="clip1_2617_9521">
<rect x="-4.5" y="1" width="33" height="22" rx="4.88889" fill="white"/>
</clipPath>
</defs>
</svg>
