<svg width="24" height="24" viewBox="0 0 24 24" fill="none" xmlns="http://www.w3.org/2000/svg">
<rect width="24" height="24" fill="white"/>
<g clip-path="url(#clip0_2617_9499)">
<path d="M0 4H24V20H0V4Z" fill="white"/>
<path d="M10.4 4H13.6V20H10.4V4ZM0 10.4H24V13.6H0V10.4Z" fill="#FF0000"/>
<path d="M4.6377 5.56348C5.01113 5.61252 5.38938 5.61252 5.76282 5.56348C5.54602 6.64391 5.54602 7.75664 5.76282 8.83708C5.38938 8.78803 5.01113 8.78803 4.6377 8.83708C4.85449 7.75664 4.85449 6.64391 4.6377 5.56348Z" fill="#FF0000"/>
<path d="M6.83691 6.6377C6.78787 7.01113 6.78787 7.38938 6.83691 7.76282C5.75648 7.54602 4.64375 7.54602 3.56331 7.76282C3.61236 7.38938 3.61236 7.01113 3.56331 6.6377C4.64375 6.85449 5.75648 6.85449 6.83691 6.6377Z" fill="#FF0000"/>
<path d="M18.2383 5.56348C18.6117 5.61252 18.99 5.61252 19.3634 5.56348C19.1466 6.64391 19.1466 7.75664 19.3634 8.83708C18.99 8.78803 18.6117 8.78803 18.2383 8.83708C18.4551 7.75664 18.4551 6.64391 18.2383 5.56348Z" fill="#FF0000"/>
<path d="M20.4375 6.6377C20.3885 7.01113 20.3885 7.38938 20.4375 7.76282C19.3571 7.54602 18.2443 7.54602 17.1639 7.76282C17.2129 7.38938 17.2129 7.01113 17.1639 6.6377C18.2443 6.85449 19.3571 6.85449 20.4375 6.6377Z" fill="#FF0000"/>
<path d="M4.6377 15.1631C5.01113 15.2121 5.38938 15.2121 5.76282 15.1631C5.54602 16.2435 5.54602 17.3563 5.76282 18.4367C5.38938 18.3876 5.01113 18.3876 4.6377 18.4367C4.85449 17.3563 4.85449 16.2435 4.6377 15.1631Z" fill="#FF0000"/>
<path d="M6.83691 16.2373C6.78787 16.6107 6.78787 16.989 6.83691 17.3624C5.75648 17.1456 4.64375 17.1456 3.56331 17.3624C3.61236 16.989 3.61236 16.6107 3.56331 16.2373C4.64375 16.4541 5.75648 16.4541 6.83691 16.2373Z" fill="#FF0000"/>
<path d="M18.2383 15.1631C18.6117 15.2121 18.99 15.2121 19.3634 15.1631C19.1466 16.2435 19.1466 17.3563 19.3634 18.4367C18.99 18.3876 18.6117 18.3876 18.2383 18.4367C18.4551 17.3563 18.4551 16.2435 18.2383 15.1631Z" fill="#FF0000"/>
<path d="M20.4375 16.2373C20.3885 16.6107 20.3885 16.989 20.4375 17.3624C19.3571 17.1456 18.2443 17.1456 17.1639 17.3624C17.2129 16.989 17.2129 16.6107 17.1639 16.2373C18.2443 16.4541 19.3571 16.4541 20.4375 16.2373Z" fill="#FF0000"/>
</g>
<defs>
<clipPath id="clip0_2617_9499">
<rect width="24" height="16" fill="white" transform="translate(0 4)"/>
</clipPath>
</defs>
</svg>
