<svg width="60" height="60" viewBox="0 0 60 60" fill="none" xmlns="http://www.w3.org/2000/svg">
<circle cx="30" cy="30" r="30" fill="white"/>
<circle cx="30.015" cy="29.9857" r="28.2904" fill="#A6918C"/>
<path d="M18.6516 27.3571H17.4377V20.7358L14.9762 23.6479L12.5147 20.7358V27.3571H11.3008V17.4436L14.9762 21.8125L18.6516 17.4436V27.3571Z" fill="white"/>
<path d="M25.5303 18.9944H21.9561V23.243H24.9234V24.3894H21.9561V26.2103H25.5303V27.3567H20.7422V17.8479H25.5303V18.9944Z" fill="white"/>
<path d="M31.7335 17.7131C32.6761 17.7131 33.5551 17.9933 34.2961 18.4769V20.0036C33.6467 19.298 32.7385 18.8596 31.7335 18.8596C29.7595 18.8596 28.1592 20.5504 28.1592 22.6361C28.1592 24.7219 29.7595 26.4127 31.7335 26.4127C32.7385 26.4127 33.6467 25.9743 34.2961 25.2687V26.7953C33.5551 27.279 32.6761 27.5592 31.7335 27.5592C29.089 27.5592 26.9453 25.355 26.9453 22.6361C26.9453 19.9172 29.089 17.7131 31.7335 17.7131Z" fill="white"/>
<path d="M41.2432 17.8479V18.9944H38.8828V27.3567H37.6689V18.9944H35.3086V17.8479H41.2432Z" fill="white"/>
<path d="M42.728 26.2104H48.5277V27.3568H42.728V26.2104Z" fill="white"/>
<path fill-rule="evenodd" clip-rule="evenodd" d="M45.6616 17.7131C47.617 17.7131 49.2021 19.2983 49.2021 21.2537C49.2021 23.209 47.617 24.7942 45.6616 24.7942C43.7062 24.7942 42.1211 23.209 42.1211 21.2537C42.1211 19.2983 43.7062 17.7131 45.6616 17.7131ZM45.6616 18.927C44.3767 18.927 43.335 19.9687 43.335 21.2537C43.335 22.5386 44.3767 23.5803 45.6616 23.5803C46.9466 23.5803 47.9882 22.5386 47.9882 21.2537C47.9882 19.9687 46.9466 18.927 45.6616 18.927Z" fill="white"/>
<path d="M15.6163 32.6848C16.5589 32.6848 17.4379 32.965 18.1789 33.4486V34.9753C17.5295 34.2696 16.6214 33.8313 15.6163 33.8313C13.6423 33.8313 12.042 35.5221 12.042 37.6078C12.042 39.6936 13.6423 41.3844 15.6163 41.3844C16.6214 41.3844 17.5295 40.946 18.1789 40.2403V41.767C17.4379 42.2507 16.5589 42.5308 15.6163 42.5308C12.9719 42.5308 10.8281 40.3267 10.8281 37.6078C10.8281 34.8889 12.9719 32.6848 15.6163 32.6848Z" fill="white"/>
<path d="M26.5426 42.3285H25.3287V34.9085L21.1475 38.1323V42.3285H19.9336V32.8197H21.1475V36.5994L26.5429 32.4396L26.5426 42.3285Z" fill="white"/>
<path d="M35.5103 42.3283H34.2963V33.9659H30.7896V39.4949C30.7896 41.1389 29.4556 42.4639 27.8223 42.464V41.2502C28.7875 41.2497 29.5756 40.4665 29.5757 39.4949V32.8195H35.5103V42.3283Z" fill="white"/>
<path fill-rule="evenodd" clip-rule="evenodd" d="M38.8819 35.9891H41.0399C42.7159 35.9891 44.0746 37.3478 44.0746 39.0238V39.2935C44.0746 40.9696 42.7159 42.3283 41.0399 42.3283H37.668V32.8195H38.8819V35.9891ZM38.8819 41.1144H41.0399C42.0455 41.1144 42.8607 40.2992 42.8607 39.2935V39.0238C42.8607 38.0182 42.0455 37.203 41.0399 37.203H38.8819V41.1144Z" fill="white"/>
<path d="M46.5024 42.3283H45.2885V32.8195H46.5024V42.3283Z" fill="white"/>
</svg>
