<svg xmlns="http://www.w3.org/2000/svg" style="display: none;">
    <symbol id="icon-instagram" viewBox="0 0 26 26">
        <g clip-path="url(#clip-instagram)">
            <rect width="26" height="26" rx="10" fill="#C4AFAB" />
            <path d="M13.0017 5.00024C10.829 5.00024 10.5564 5.00974 9.70302 5.04858C8.85135 5.08758 8.27001 5.22241 7.76134 5.42025C7.23517 5.62458 6.78882 5.89791 6.34416 6.34274C5.89916 6.78742 5.62581 7.23374 5.42082 7.75974C5.22248 8.26858 5.08747 8.85008 5.04914 9.70141C5.01098 10.5547 5.00098 10.8276 5.00098 13.0002C5.00098 15.1729 5.01065 15.4447 5.04931 16.2981C5.08848 17.1497 5.22331 17.7311 5.42098 18.2397C5.62548 18.7659 5.89882 19.2122 6.34365 19.6569C6.78817 20.1019 7.2345 20.3759 7.76033 20.5802C8.26934 20.7781 8.85085 20.9129 9.70236 20.9519C10.5557 20.9907 10.8282 21.0002 13.0007 21.0002C15.1736 21.0002 15.4454 20.9907 16.2988 20.9519C17.1504 20.9129 17.7324 20.7781 18.2414 20.5802C18.7675 20.3759 19.2131 20.1019 19.6576 19.6569C20.1026 19.2122 20.376 18.7659 20.581 18.2399C20.7776 17.7311 20.9126 17.1496 20.9526 16.2982C20.991 15.4449 21.001 15.1729 21.001 13.0002C21.001 10.8276 20.991 10.5549 20.9526 9.70158C20.9126 8.84991 20.7776 8.26858 20.581 7.75992C20.376 7.23374 20.1026 6.78741 19.6576 6.34274C19.2126 5.89774 18.7676 5.62441 18.241 5.42024C17.7309 5.22241 17.1493 5.08758 16.2976 5.04858C15.4442 5.00974 15.1726 5.00024 12.9992 5.00024H13.0017ZM12.284 6.44191C12.4971 6.44158 12.7347 6.44191 13.0017 6.44191C15.1377 6.44191 15.3909 6.44958 16.2344 6.48791C17.0144 6.52358 17.4378 6.65391 17.7198 6.76341C18.0931 6.90841 18.3593 7.08175 18.6391 7.36174C18.9191 7.64175 19.0925 7.90841 19.2378 8.28174C19.3473 8.56341 19.4778 8.98674 19.5133 9.76675C19.5516 10.6101 19.56 10.8634 19.56 12.9984C19.56 15.1334 19.5516 15.3868 19.5133 16.2301C19.4776 17.0101 19.3473 17.4334 19.2378 17.7151C19.0928 18.0884 18.9191 18.3542 18.6391 18.6341C18.3591 18.9141 18.0933 19.0874 17.7198 19.2324C17.4381 19.3424 17.0144 19.4724 16.2344 19.5081C15.3911 19.5464 15.1377 19.5547 13.0017 19.5547C10.8655 19.5547 10.6124 19.5464 9.76902 19.5081C8.98902 19.4721 8.56569 19.3417 8.28351 19.2322C7.91017 19.0872 7.6435 18.9139 7.3635 18.6339C7.0835 18.3539 6.91017 18.0879 6.76483 17.7144C6.65532 17.4327 6.52483 17.0094 6.48933 16.2294C6.45099 15.3861 6.44332 15.1327 6.44332 12.9964C6.44332 10.8601 6.45099 10.6081 6.48933 9.76475C6.525 8.98474 6.65532 8.56141 6.76483 8.27941C6.90983 7.90608 7.0835 7.63941 7.3635 7.35941C7.6435 7.07941 7.91017 6.90608 8.28351 6.76075C8.56552 6.65074 8.98902 6.52075 9.76902 6.48491C10.507 6.45157 10.793 6.44158 12.2841 6.4399L12.284 6.44191ZM17.2721 7.77024C16.7421 7.77024 16.3121 8.19975 16.3121 8.72991C16.3121 9.25991 16.7421 9.68991 17.2721 9.68991C17.8021 9.68991 18.2321 9.25991 18.2321 8.72991C18.2321 8.19991 17.8021 7.76992 17.2721 7.76992L17.2721 7.77024ZM13.0017 8.89191C10.7329 8.89191 8.89335 10.7314 8.89335 13.0002C8.89335 15.2691 10.7329 17.1077 13.0017 17.1077C15.2706 17.1077 17.1094 15.2691 17.1094 13.0002C17.1094 10.7314 15.2704 8.89191 13.0016 8.89191H13.0017ZM13.0017 10.3336C14.4744 10.3336 15.6684 11.5274 15.6684 13.0002C15.6684 14.4729 14.4744 15.6669 13.0017 15.6669C11.5289 15.6669 10.335 14.4729 10.335 13.0002C10.335 11.5274 11.5289 10.3336 13.0017 10.3336Z" fill="white" />
        </g>
        <defs>
            <clipPath id="clip-instagram">
                <rect width="26" height="26" fill="white" />
            </clipPath>
        </defs>
    </symbol>

    <symbol id="icon-telegram" viewBox="0 0 26 26">
        <g clip-path="url(#clip-telegram)">
            <path d="M13 26C20.1797 26 26 20.1797 26 13C26 5.8203 20.1797 0 13 0C5.8203 0 0 5.8203 0 13C0 20.1797 5.8203 26 13 26Z" fill="#C4AFAB" />
            <path fill-rule="evenodd" clip-rule="evenodd" d="M5.8846 12.8631C9.67437 11.2119 12.2015 10.1234 13.4659 9.59747C17.0761 8.09585 17.8263 7.835 18.3153 7.82639C18.4228 7.82449 18.6633 7.85114 18.819 7.97753C18.9505 8.08425 18.9867 8.2284 19.0041 8.32958C19.0214 8.43076 19.0429 8.66125 19.0258 8.84135C18.8301 10.897 17.9836 15.8854 17.5529 18.1877C17.3707 19.1619 17.0119 19.4885 16.6645 19.5205C15.9096 19.59 15.3363 19.0216 14.6051 18.5423C13.461 17.7923 12.8146 17.3254 11.704 16.5935C10.4205 15.7477 11.2525 15.2828 11.984 14.5231C12.1754 14.3243 15.5017 11.2988 15.566 11.0243C15.5741 10.99 15.5816 10.862 15.5055 10.7945C15.4295 10.7269 15.3173 10.75 15.2364 10.7684C15.1216 10.7944 13.2938 12.0026 9.75291 14.3928C9.23409 14.749 8.76416 14.9226 8.34311 14.9135C7.87895 14.9035 6.98607 14.6511 6.32232 14.4353C5.50819 14.1707 4.86114 14.0307 4.91748 13.5813C4.94683 13.3472 5.2692 13.1078 5.8846 12.8631Z" fill="white" />
        </g>
        <defs>
            <clipPath id="clip-telegram">
                <rect width="26" height="26" fill="white" />
            </clipPath>
        </defs>
    </symbol>

    <symbol id="icon-whatsapp" viewBox="0 0 26 26">
        <g clip-path="url(#clip-whatsapp)">
            <path d="M5.86897 23.9687L6.35794 24.2125C8.39561 25.4312 10.6776 26 12.9597 26C20.1319 26 26 20.15 26 13C26 9.58754 24.6144 6.25627 22.1694 3.81873C19.7243 1.3812 16.4642 0 12.9597 0C5.78753 0 -0.0807138 5.84999 0.000839892 13.0813C0.000839892 15.5187 0.734356 17.8751 1.95684 19.9062L2.28283 20.3938L0.9789 25.1876L5.86897 23.9687Z" fill="#C4AFAB" />
            <path d="M20.0319 16.2001L19.1582 15.8077C19.1582 15.8077 17.8874 15.2583 17.0931 14.8659C17.0136 14.8659 16.9342 14.7873 16.8547 14.7873C16.6164 14.7873 16.4576 14.8659 16.2987 14.9444C16.2987 14.9444 16.2193 15.0228 15.1073 16.2785C15.0278 16.4355 14.869 16.514 14.7101 16.514H14.6306C14.5513 16.514 14.3924 16.4355 14.3129 16.3571L13.9158 16.2001C13.042 15.8077 12.2478 15.3367 11.6123 14.7089C11.4534 14.5519 11.2151 14.395 11.0563 14.238C10.5002 13.6887 9.9442 13.0607 9.54714 12.3544L9.46765 12.1974C9.38829 12.1189 9.38829 12.0405 9.3088 11.8835C9.3088 11.7266 9.3088 11.5696 9.38829 11.4911C9.38829 11.4911 9.70598 11.0987 9.9442 10.8633C10.1032 10.7062 10.1825 10.4709 10.3414 10.3139C10.5002 10.0784 10.5797 9.76452 10.5002 9.52904C10.4209 9.13661 9.46765 7.01759 9.22944 6.54673C9.07047 6.31125 8.91174 6.23283 8.67341 6.1543H7.79969C7.64072 6.1543 7.48199 6.23283 7.32302 6.23283L7.24354 6.31125C7.08469 6.38978 6.92585 6.54673 6.767 6.62515C6.60815 6.78222 6.52867 6.93906 6.36982 7.09612C5.81379 7.80246 5.49609 8.66575 5.49609 9.52904C5.49609 10.1568 5.65494 10.7848 5.89327 11.3342L5.97275 11.5696C6.68763 13.0607 7.64072 14.395 8.91174 15.5722L9.22944 15.8861C9.46765 16.1216 9.70598 16.2785 9.86483 16.5139C11.5329 17.9267 13.4392 18.9469 15.5838 19.4963C15.8222 19.5747 16.1399 19.5747 16.3782 19.6533H17.1724C17.5696 19.6533 18.0462 19.4963 18.364 19.3394C18.6022 19.1824 18.761 19.1824 18.9199 19.0255L19.0789 18.8684C19.2377 18.7115 19.3966 18.633 19.5554 18.4761C19.7142 18.3191 19.8731 18.1622 19.9526 18.0051C20.1114 17.6912 20.1908 17.2988 20.2703 16.9064V16.3571C20.2703 16.3571 20.1908 16.2785 20.0319 16.2001Z" fill="white" />
        </g>
        <defs>
            <clipPath id="clip-whatsapp">
                <rect width="26" height="26" fill="white" />
            </clipPath>
        </defs>
    </symbol>
    <symbol id="icon-location" viewBox="0 0 15 16">
        <path fill-rule="evenodd" clip-rule="evenodd" d="M12.3796 2.49938C13.6033 3.69407 14.303 5.30669 14.331 6.9961C14.359 8.6855 13.7135 10.3193 12.53 11.5521C12.3797 11.704 12.3796 11.704 12.3796 11.704L9.23687 14.7715C8.83813 15.1606 8.30306 15.387 7.73965 15.4051C7.17623 15.4233 6.62675 15.2318 6.20265 14.8691C6.096 14.7715 6.0956 14.7715 6.0956 14.7715L2.95289 11.7033C1.70283 10.4828 1 8.82776 1 7.1017C1 5.37565 1.70283 3.71989 2.95289 2.49938C4.20297 1.27888 5.89801 0.593506 7.66587 0.593506C9.43373 0.593506 11.1295 1.27888 12.3796 2.49938ZM7.66587 4.93182C7.37408 4.93182 7.08557 4.98843 6.816 5.09745C6.54643 5.20648 6.30119 5.36615 6.09488 5.56759C5.88855 5.76904 5.72483 6.00816 5.61316 6.27136C5.5015 6.53456 5.44391 6.81683 5.44391 7.1017C5.44391 7.38658 5.5015 7.66884 5.61316 7.93204C5.72483 8.19524 5.88855 8.43436 6.09488 8.63581C6.30119 8.83725 6.54643 8.99692 6.816 9.10595C7.08557 9.21497 7.37408 9.27086 7.66587 9.27086C8.25515 9.27086 8.82019 9.04263 9.23687 8.63581C9.65356 8.22898 9.88783 7.67705 9.88783 7.1017C9.88783 6.52636 9.65356 5.97442 9.23687 5.56759C8.82019 5.16077 8.25515 4.93182 7.66587 4.93182Z" fill="currentColor" />
    </symbol>
    <symbol id="telegrambot" viewBox="0 0 18 18">
        <path fill-rule="evenodd" clip-rule="evenodd" d="M1.23741 8.48116C6.06923 6.12239 9.29121 4.56734 10.9033 3.81602C15.5063 1.67084 16.4627 1.2982 17.0861 1.2859C17.2232 1.28319 17.5298 1.32127 17.7284 1.50182C17.8961 1.65427 17.9422 1.86021 17.9643 2.00475C17.8961 2.1493 18.0139 2.47857 17.992 2.73585C17.7426 5.67243 16.6633 12.7987 16.1142 16.0878C15.8818 17.4795 15.4244 17.9461 14.9815 17.9918C14.0189 18.091 13.288 17.279 12.3558 16.5943C10.897 15.5229 10.0729 14.8559 8.65691 13.8103C7.02048 12.602 8.08131 11.9379 9.0139 10.8526C9.25797 10.5686 13.4988 6.24644 13.5809 5.85435C13.5912 5.80531 13.6007 5.62253 13.5038 5.52601C13.4069 5.42949 13.2639 5.4625 13.1606 5.48875C13.0143 5.52596 10.6839 7.25185 6.16938 10.6664C5.5079 11.1754 4.90875 11.4233 4.37193 11.4104C3.78013 11.396 2.64175 11.0354 1.79548 10.7272C0.757494 10.3491 -0.0674757 10.1493 0.00436067 9.5072C0.0417775 9.17278 0.452793 8.83076 1.23741 8.48116Z" fill="currentColor" />
    </symbol>
    <symbol id="calendar" viewBox="0 0 18 18">
        <path d="M2 6H16M5 1V3M13 1V3M17 4.45455L17 14.5455C17 15.9011 15.9011 17 14.5455 17H3.45455C2.09894 17 1 15.9011 1 14.5455V4.45455C1 3.09894 2.09894 2 3.45455 2H14.5455C15.9011 2 17 3.09894 17 4.45455Z" stroke="currentColor" stroke-width="2" stroke-linecap="round" stroke-linejoin="round" fill="none"/>
        <circle cx="5" cy="10" r="1" fill="currentColor"/>
        <circle cx="5" cy="13" r="1" fill="currentColor"/>
        <circle cx="9" cy="10" r="1" fill="currentColor"/>
        <circle cx="9" cy="13" r="1" fill="currentColor"/>
        <circle cx="13" cy="10" r="1" fill="currentColor"/>
        <circle cx="13" cy="13" r="1" fill="currentColor"/>
    </symbol>
</svg>
