<svg width="180" height="180" viewBox="0 0 180 180" fill="none" xmlns="http://www.w3.org/2000/svg">
<g clip-path="url(#clip0_2801_1701)">
<rect width="180" height="180" fill="#F7F2E7"/>
<path fill-rule="evenodd" clip-rule="evenodd" d="M87.5498 117.435C73.4528 116.557 61.0002 109.292 55.2725 96.9353C55.1945 96.7935 55.1575 96.6711 55.0749 96.5329L55.039 96.4303V96.4105L55.002 96.3495L54.9564 96.2296C50.876 86.9189 51.349 76.49 55.3874 66.9581V66.9201L55.6294 66.3978L55.6664 66.3156C55.7408 66.1566 55.8219 65.9939 55.8963 65.8152L55.9418 65.715L56.1753 65.2343V65.173C56.2952 64.992 56.3692 64.833 56.4507 64.6532L56.4867 64.5918C56.8401 63.8699 57.1941 63.1652 57.5881 62.4656L57.6625 62.3626C57.708 62.2452 57.786 62.1217 57.8685 62.0043C57.9009 61.9221 57.9429 61.8428 57.9749 61.7631C58.0575 61.664 58.0984 61.5588 58.181 61.4612C58.2134 61.3632 58.2924 61.2799 58.3365 61.1819C58.4109 61.0828 58.4514 60.9791 58.534 60.88C58.5664 60.8003 58.6489 60.7012 58.6895 60.6205C58.7639 60.5214 58.8045 60.4187 58.8824 60.3207C58.9194 60.2206 59.0009 60.1398 59.0753 60.0407C59.1244 59.9352 59.1988 59.8558 59.2308 59.7568C59.3134 59.6588 59.3543 59.5572 59.4368 59.4595L59.6297 59.195C59.6667 59.0973 59.7493 58.9957 59.8237 58.8977C59.8642 58.7951 59.9472 58.7143 59.9792 58.6335C60.0674 58.5327 60.1482 58.4255 60.2212 58.313C60.2956 58.2336 60.3326 58.1539 60.3817 58.0732C60.456 57.973 60.5372 57.8739 60.6116 57.7501C60.6941 57.6708 60.7311 57.5947 60.8055 57.5153C60.887 57.3918 60.966 57.2928 61.0475 57.1714C61.1219 57.1129 61.1578 57.0332 61.203 56.9722C61.3585 56.7924 61.4699 56.61 61.6294 56.4301L69.9948 74.4079C69.4489 77.1325 69.1734 79.9243 69.1734 82.7713C69.1734 92.8624 72.703 102.512 79.2232 110.099L79.3047 110.178C79.4246 110.319 79.5801 110.456 79.6915 110.58L79.7371 110.618L79.847 110.803L80.089 111.042C80.2004 111.142 80.283 111.261 80.3559 111.362L80.405 111.385L80.5114 111.503C80.5944 111.602 80.7164 111.704 80.7919 111.786L80.8278 111.843L80.9463 111.964L81.0695 112.084L81.2993 112.304L81.5794 112.588L81.7353 112.75L81.9278 112.928L82.0477 113.048L82.1662 113.146L82.4417 113.43L82.5157 113.468L82.6392 113.591L82.8331 113.772C82.9193 113.851 82.9936 113.913 83.1086 113.994V114.012C83.2317 114.11 83.342 114.214 83.4616 114.333L83.7406 114.553L84.0075 114.776L84.126 114.896C84.2089 114.975 84.2819 115.036 84.3644 115.093L84.405 115.116L84.5609 115.236L84.6349 115.297C84.7175 115.358 84.7908 115.414 84.8733 115.494L84.9954 115.599C85.1509 115.717 85.3079 115.816 85.4192 115.939H85.4648C86.1363 116.452 86.842 116.954 87.5498 117.435ZM31 100.483C36.6213 96.189 44.3604 93.8643 52.7999 94.065C53.1159 94.9678 53.4643 95.8487 53.8557 96.7516L53.9383 96.9364L53.9742 97.0538C54.0568 97.1945 54.0974 97.3378 54.1717 97.4734C60.4575 111.017 74.1218 118.077 88.3384 118.719C80.2445 123.958 68.6179 125.564 56.887 122.172C44.2789 118.522 34.7391 110.052 31 100.483ZM88.9662 119.764C86.526 124.137 82.9965 127.67 78.436 129.833C69.4887 134.088 58.966 131.861 50.7575 125.038L55.1945 122.95C55.629 123.092 56.102 123.235 56.5294 123.352C62.6187 125.118 69.0517 125.683 75.3015 124.737C80.0919 124.039 84.8787 122.433 88.9662 119.764ZM92.4633 117.435C106.555 116.557 119.004 109.292 124.736 96.9353C124.814 96.7935 124.854 96.6711 124.929 96.5329L124.978 96.4303V96.4105L125.01 96.3495L125.051 96.2296C129.135 86.9189 128.662 76.49 124.616 66.9581V66.9201C124.542 66.7366 124.46 66.5751 124.386 66.3978L124.346 66.3156C124.263 66.1565 124.19 65.9939 124.143 65.8152L124.065 65.715L123.827 65.2343V65.173C123.753 64.992 123.634 64.833 123.555 64.6532V64.5918L122.413 62.4656L122.377 62.3625C122.301 62.2421 122.222 62.1226 122.143 62.0043C122.11 61.9221 122.061 61.8428 122.028 61.7631C121.953 61.664 121.906 61.5588 121.831 61.4612C121.794 61.3632 121.712 61.2799 121.676 61.1819C121.64 61.0839 121.552 60.9791 121.478 60.88C121.437 60.8003 121.363 60.7012 121.323 60.6204C121.24 60.5214 121.204 60.4187 121.121 60.3207C121.084 60.2206 121.01 60.1398 120.966 60.0407C120.887 59.9352 120.805 59.8558 120.772 59.7568C120.697 59.6588 120.65 59.5572 120.574 59.4595L120.378 59.195C120.337 59.0973 120.263 58.9957 120.18 58.8977C120.14 58.7951 120.065 58.7143 120.02 58.6335C119.946 58.5355 119.864 58.4365 119.786 58.313C119.754 58.2336 119.671 58.1539 119.631 58.0732C119.546 57.9698 119.466 57.8619 119.392 57.7501C119.318 57.6708 119.282 57.5947 119.2 57.5153C119.122 57.3918 119.039 57.2928 118.966 57.1714C118.883 57.1129 118.851 57.0332 118.811 56.9722C118.655 56.7924 118.53 56.61 118.375 56.4301L110.009 74.4079C110.564 77.1325 110.88 79.9243 110.88 82.7713C110.88 92.8624 107.302 102.512 100.782 110.099L100.708 110.178C100.593 110.319 100.436 110.456 100.313 110.58L100.272 110.618L100.157 110.803L99.927 111.042C99.8455 111.142 99.7224 111.261 99.648 111.362L99.6074 111.385L99.4925 111.503C99.4099 111.602 99.295 111.704 99.2124 111.786L99.18 111.843L99.0565 111.964L98.9466 112.084L98.7035 112.304L98.4281 112.588L98.2676 112.75L98.0786 112.928L97.9551 113.048L97.8437 113.146L97.5686 113.43L97.4857 113.468L97.3708 113.591L97.1697 113.772C97.0957 113.851 97.0092 113.913 96.9028 113.994V114.012C96.7793 114.11 96.6597 114.214 96.5412 114.333L95.9939 114.776L95.8754 114.896C95.8014 114.975 95.7199 115.036 95.6455 115.093L95.5964 115.116L95.4409 115.236L95.3665 115.297C95.2925 115.358 95.211 115.414 95.137 115.494L95.0135 115.599C94.858 115.717 94.701 115.816 94.579 115.939H94.5455C93.8761 116.452 93.1612 116.954 92.4633 117.435ZM149 100.483C143.392 96.189 135.651 93.8643 127.213 94.065C126.896 94.9678 126.539 95.8487 126.149 96.7515L126.066 96.9364L126.03 97.0538C125.956 97.1945 125.915 97.3378 125.833 97.4734C119.546 111.017 105.886 118.077 91.7114 118.719C99.7644 123.958 111.387 125.564 123.129 122.172C135.726 118.522 145.269 110.052 149 100.483ZM91.0445 119.764C93.4772 124.137 97.0071 127.67 101.566 129.833C110.523 134.088 121.046 131.861 129.254 125.038L124.813 122.95C124.386 123.092 123.909 123.235 123.477 123.352C117.393 125.118 110.951 125.683 104.71 124.737C99.9234 124.039 95.1669 122.433 91.0445 119.764ZM90.0231 48L91.0459 48.6422C91.0829 48.6605 91.1655 48.7036 91.2014 48.7427C97.9403 53.0621 103.236 59.3259 106.4 66.7205C108.084 70.6918 108.593 72.2785 108.01 76.71C107.417 81.4252 105.34 85.0763 102.471 87.6455C102.669 86.7243 102.75 85.7799 102.75 84.8157C102.75 77.6128 97.0573 71.7734 90.0231 71.7734C82.957 71.7734 77.2613 77.6128 77.2613 84.8157C77.2613 85.7799 77.3357 86.7243 77.5417 87.6455C74.6741 85.0763 72.5873 81.4252 72.003 76.71C71.4104 72.2785 71.9659 70.6918 73.6133 66.7205C76.7922 59.2743 82.1331 53.0174 88.8068 48.7427C88.8473 48.7022 88.9217 48.6605 88.9673 48.6422C89.3142 48.4198 89.6662 48.2057 90.0231 48ZM90.0231 73.0201C96.3832 73.0201 101.568 78.2956 101.568 84.8157C101.568 86.2595 101.289 87.6455 100.82 88.9302C97.6857 91.1178 93.827 92.198 90.0231 92.198C86.1776 92.198 82.3321 91.1164 79.1855 88.9302C78.7175 87.6455 78.4826 86.2605 78.4826 84.8157C78.4816 78.2945 83.6214 73.0201 90.0231 73.0201ZM90.0231 93.4422C81.1072 93.4422 72.2328 87.9046 70.783 76.8691L70.3521 82.7674C70.3521 92.9199 74.0457 102.187 80.1673 109.271L80.2463 109.351C80.3243 109.489 80.4844 109.63 80.5993 109.753V109.792L80.7598 109.951L80.8783 110.073L80.9527 110.173L80.9933 110.192C81.0759 110.291 81.1492 110.393 81.2652 110.494V110.512L81.3477 110.573L81.3887 110.634C81.5033 110.734 81.5862 110.834 81.6687 110.933H81.7011V110.976H81.7417V110.994L81.8242 111.076L81.8986 111.156V111.174L81.9346 111.194V111.217L81.9798 111.235L82.1356 111.394V111.415H82.1726V111.457L82.247 111.513V111.537L82.3331 111.575V111.594L82.3655 111.618V111.656H82.4061V111.697L82.562 111.817V111.836L82.6815 111.939V111.957H82.7175V111.995H82.763V112.038H82.8V112.059L82.8371 112.079V112.102L82.873 112.122V112.14L82.9965 112.239L83.0289 112.281L83.152 112.401H83.1879V112.444H83.2335V112.481H83.2659V112.524H83.3064V112.562H83.3424L83.425 112.667L83.4993 112.705L83.6178 112.804V112.847C83.7004 112.908 83.8153 112.988 83.8979 113.047V113.088C84.0089 113.188 84.1257 113.281 84.2477 113.367V113.409H84.2833V113.427L84.4812 113.568V113.606H84.5217V113.624L84.5623 113.65L84.7182 113.786L84.7541 113.828L84.8737 113.927H84.9143V113.946C84.9972 114.007 85.0701 114.067 85.1527 114.129V114.147H85.1897V114.188H85.2257V114.227H85.263V114.248H85.3082V114.291H85.3456V114.309H85.3815V114.329C85.4641 114.39 85.537 114.451 85.6196 114.507V114.531H85.6602V114.569H85.6961V114.59H85.7335V114.613C85.889 114.73 86.0086 114.829 86.1691 114.933V114.953C87.0858 115.644 88.0284 116.3 88.9947 116.918V116.916C89.1505 117.016 89.3071 117.118 89.4676 117.197V117.195V117.218H89.5036V117.239L89.6594 117.337H89.6964V117.357H89.742V117.38H89.7779L89.8975 117.48V117.498L89.9381 117.518V117.599L89.9705 117.623V117.704H90.0114V117.623L90.052 117.599V117.518L90.0925 117.498V117.48L90.211 117.38H90.2484V117.357H90.2843V117.337H90.3214L90.4769 117.239V117.218H90.5224V117.195C90.6829 117.117 90.8384 117.016 90.9954 116.917V116.914C91.9612 116.3 92.9015 115.645 93.8139 114.952V114.931C93.9694 114.828 94.1345 114.729 94.2494 114.612V114.588H94.2904V114.567H94.3309V114.529H94.3719V114.506C94.4868 114.45 94.5274 114.389 94.6018 114.327L94.6469 114.308V114.289H94.6829V114.246H94.7203V114.225H94.7562V114.186H94.8014V114.165L94.8373 114.146V114.127C94.9117 114.066 94.9932 114.005 95.0672 113.945V113.924H95.1163L95.2267 113.825L95.2722 113.783L95.4192 113.648L95.4683 113.622V113.604H95.5007V113.566L95.6982 113.425V113.407H95.7306V113.365C95.8541 113.283 95.9726 113.184 96.0921 113.086V113.044C96.2071 112.985 96.2896 112.906 96.364 112.845V112.802L96.4836 112.703L96.5651 112.665L96.6765 112.559V112.521H96.722V112.478H96.759V112.44H96.8V112.422L96.832 112.399L96.9555 112.279L96.9879 112.237L97.111 112.138V112.12L97.1469 112.1V112.077H97.1925V112.036H97.2295V111.993H97.2669V111.955H97.3028V111.937L97.4213 111.834V111.814L97.5768 111.694V111.654H97.6174V111.615H97.6629V111.571H97.6989L97.7363 111.533V111.51L97.8174 111.454V111.412H97.8548V111.391L98.0103 111.232L98.0508 111.214V111.191L98.0832 111.171V111.153L98.1658 111.073L98.2402 110.991V110.973H98.2893V110.93H98.3252C98.3992 110.831 98.5192 110.733 98.6007 110.631L98.6412 110.57L98.7153 110.509V110.491C98.8302 110.39 98.9177 110.287 98.9871 110.188L99.0281 110.17L99.1106 110.07L99.2256 109.947L99.3811 109.788V109.749C99.5366 109.627 99.6565 109.488 99.7761 109.348L99.8505 109.268C105.943 102.183 109.632 92.9152 109.632 82.7641L109.196 76.8658C107.772 87.9003 98.8964 93.4415 90.0231 93.4389V93.4422Z" fill="#A6918C"/>
</g>
<defs>
<clipPath id="clip0_2801_1701">
<rect width="180" height="180" rx="40" fill="white"/>
</clipPath>
</defs>
</svg>
